<svg width="922" height="407" viewBox="0 0 922 407" fill="none" xmlns="http://www.w3.org/2000/svg">
<g clip-path="url(#clip0_6254_673)">
<g filter="url(#filter0_ddd_6254_673)">
<mask id="mask0_6254_673" style="mask-type:luminance" maskUnits="userSpaceOnUse" x="357" y="127" width="251" height="227">
<path d="M607.685 194.809H607.674C607.71 193.95 607.741 193.09 607.741 192.226C607.741 157.455 578.411 127.312 542.237 127.312C515.786 127.312 493.013 144.339 482.674 166.034H482.658C472.314 144.339 449.545 127.312 423.095 127.312C386.915 127.312 357.591 157.455 357.591 192.226C357.591 193.09 357.622 193.95 357.657 194.809H357.647C357.647 194.809 353.95 236.115 399.919 281.215C420.821 302.158 444.195 322.058 482.668 353.33C521.142 322.058 544.515 302.158 565.418 281.215C611.387 236.115 607.69 194.809 607.69 194.809H607.685Z" fill="white"/>
<path d="M542.237 127.871C578.102 127.871 607.182 157.763 607.182 192.226C607.182 193.078 607.152 193.928 607.116 194.786L607.092 195.368H607.164C607.179 195.673 607.195 196.112 607.2 196.677C607.211 197.879 607.177 199.652 606.992 201.922C606.623 206.464 605.656 212.998 603.258 220.938C598.537 236.567 588.269 257.663 566.092 279.763L565.026 280.816L565.022 280.82C544.206 301.676 520.93 321.503 482.668 352.609C444.406 321.503 421.13 301.676 400.314 280.82L400.311 280.816C377.395 258.334 366.875 236.815 362.079 220.938C359.681 212.998 358.713 206.464 358.345 201.922C358.16 199.652 358.126 197.879 358.137 196.677C358.142 196.112 358.158 195.673 358.173 195.368H358.239L358.216 194.786C358.18 193.928 358.149 193.078 358.149 192.226C358.149 157.763 387.225 127.871 423.095 127.871C449.302 127.871 471.89 144.747 482.154 166.275L482.306 166.593H483.026L483.178 166.275C493.437 144.748 516.03 127.871 542.237 127.871Z" stroke="white" stroke-width="1.11721"/>
</mask>
<g mask="url(#mask0_6254_673)">
<path d="M482.667 353.33V110.878L403.616 99.8003L482.667 353.33Z" fill="url(#paint0_linear_6254_673)"/>
<path d="M482.108 111.363V349.662L404.411 100.475L482.108 111.363Z" stroke="white" stroke-opacity="0.16" stroke-width="1.11721"/>
<path d="M482.668 353.33L311.082 74.1108L220.19 173.836L482.668 353.33Z" fill="url(#paint1_linear_6254_673)"/>
<path d="M480.818 351.388L221.036 173.737L310.994 75.0347L480.818 351.388Z" stroke="white" stroke-opacity="0.16" stroke-width="1.11721"/>
<path d="M482.668 353.33V106.837L524.572 108.89L482.668 353.33Z" fill="url(#paint2_linear_6254_673)"/>
<path d="M523.914 109.417L483.227 346.764V107.423L523.914 109.417Z" stroke="white" stroke-opacity="0.16" stroke-width="1.11721"/>
<path d="M482.668 353.33L605.246 108.89L666.348 231.487L482.668 353.33Z" fill="url(#paint3_linear_6254_673)"/>
<path d="M665.627 231.294L484.107 351.705L605.244 110.14L665.627 231.294Z" stroke="white" stroke-opacity="0.16" stroke-width="1.11721"/>
<path d="M481.926 357.161L521.041 123.558L595.467 129.534L481.926 357.161Z" fill="url(#paint4_linear_6254_673)" stroke="white" stroke-opacity="0.16" stroke-width="1.11721"/>
<path d="M482.668 353.33L401.243 79.2271L327.702 101.64L482.668 353.33Z" fill="url(#paint5_linear_6254_673)"/>
<path d="M480.931 349.445L328.557 101.963L400.867 79.9253L480.931 349.445Z" stroke="white" stroke-opacity="0.16" stroke-width="1.11721"/>
</g>
</g>
<path opacity="0.32" d="M399.395 238.425C393.71 237.196 388.27 240.676 387.032 246.332C385.794 251.989 389.289 257.399 394.974 258.628C400.66 259.856 406.1 256.377 407.338 250.721C408.982 245.152 405.081 239.654 399.395 238.425Z" stroke="url(#paint6_linear_6254_673)" stroke-width="0.743014" stroke-miterlimit="10"/>
<path d="M397.934 245.253C395.903 244.814 393.961 246.057 393.519 248.077C393.076 250.097 394.325 252.029 396.355 252.468C398.386 252.907 400.328 251.665 400.771 249.644C401.358 247.655 399.965 245.692 397.934 245.253Z" fill="white"/>
<path opacity="0.32" d="M395.825 165.425C390.139 164.196 384.7 167.676 383.462 173.332C382.224 178.989 385.718 184.399 391.404 185.628C397.09 186.856 402.529 183.377 403.767 177.721C405.411 172.152 401.511 166.654 395.825 165.425Z" stroke="url(#paint7_linear_6254_673)" stroke-width="0.743014" stroke-miterlimit="10"/>
<path d="M394.364 172.253C392.333 171.814 390.39 173.057 389.948 175.077C389.506 177.097 390.754 179.029 392.785 179.468C394.815 179.907 396.758 178.665 397.2 176.644C397.787 174.655 396.394 172.692 394.364 172.253Z" fill="white"/>
<path opacity="0.32" d="M395.825 165.425C390.139 164.196 384.7 167.676 383.462 173.332C382.224 178.989 385.718 184.399 391.404 185.628C397.09 186.856 402.529 183.377 403.767 177.721C405.411 172.152 401.511 166.654 395.825 165.425Z" stroke="url(#paint8_linear_6254_673)" stroke-width="0.743014" stroke-miterlimit="10"/>
<path d="M394.364 172.253C392.333 171.814 390.39 173.057 389.948 175.077C389.506 177.097 390.754 179.029 392.785 179.468C394.815 179.907 396.758 178.665 397.2 176.644C397.787 174.655 396.394 172.692 394.364 172.253Z" fill="white"/>
<path opacity="0.32" d="M452.177 145.425C446.491 144.196 441.051 147.676 439.813 153.332C438.575 158.989 442.07 164.399 447.756 165.628C453.441 166.856 458.881 163.377 460.119 157.721C461.763 152.152 457.862 146.654 452.177 145.425Z" stroke="url(#paint9_linear_6254_673)" stroke-width="0.743014" stroke-miterlimit="10"/>
<path d="M450.715 152.253C448.685 151.814 446.742 153.057 446.3 155.077C445.858 157.097 447.106 159.029 449.136 159.468C451.167 159.907 453.11 158.665 453.552 156.644C454.139 154.655 452.746 152.692 450.715 152.253Z" fill="white"/>
<path opacity="0.32" d="M501.395 149.481C495.71 148.253 490.27 151.732 489.032 157.388C487.794 163.045 491.289 168.455 496.974 169.684C502.66 170.913 508.1 167.433 509.338 161.777C510.982 156.208 507.081 150.71 501.395 149.481Z" stroke="url(#paint10_linear_6254_673)" stroke-width="0.743014" stroke-miterlimit="10"/>
<path d="M499.934 156.309C497.903 155.87 495.961 157.113 495.519 159.133C495.076 161.153 496.325 163.086 498.355 163.524C500.386 163.963 502.328 162.721 502.771 160.7C503.358 158.712 501.965 156.748 499.934 156.309Z" fill="white"/>
<path opacity="0.32" d="M547.395 151.66C541.71 150.431 536.27 153.91 535.032 159.567C533.794 165.224 537.289 170.634 542.974 171.863C548.66 173.091 554.1 169.612 555.338 163.955C556.982 158.387 553.081 152.889 547.395 151.66Z" stroke="url(#paint11_linear_6254_673)" stroke-width="0.743014" stroke-miterlimit="10"/>
<path d="M545.934 158.488C543.903 158.049 541.961 159.292 541.519 161.312C541.076 163.332 542.325 165.264 544.355 165.703C546.386 166.142 548.328 164.899 548.771 162.879C549.358 160.89 547.965 158.927 545.934 158.488Z" fill="white"/>
<path opacity="0.32" d="M560.645 222.59C554.96 221.361 549.52 224.841 548.282 230.497C547.044 236.154 550.539 241.564 556.224 242.793C561.91 244.022 567.35 240.542 568.588 234.886C570.232 229.317 566.331 223.819 560.645 222.59Z" stroke="url(#paint12_linear_6254_673)" stroke-width="0.743014" stroke-miterlimit="10"/>
<path d="M559.184 229.418C557.153 228.979 555.211 230.222 554.769 232.242C554.326 234.262 555.575 236.195 557.605 236.633C559.636 237.072 561.578 235.83 562.021 233.809C562.608 231.82 561.215 229.857 559.184 229.418Z" fill="white"/>
</g>
<path d="M482.993 26.876L514.343 83.8349C516.903 88.4866 517.5 93.9682 516 99.0619L497.643 161.42" stroke="url(#paint13_linear_6254_673)" stroke-width="0.995772" stroke-miterlimit="10"/>
<g filter="url(#filter1_d_6254_673)">
<rect x="281.18" y="14.3086" width="331.55" height="46.8012" rx="23.4006" fill="#102644"/>
<rect x="281.678" y="14.8065" width="330.554" height="45.8054" rx="22.9027" stroke="url(#paint14_linear_6254_673)" stroke-width="0.995772"/>
</g>
<path d="M308.511 41.1518C308.511 43.0876 307.31 44.5752 303.546 44.5752C299.119 44.5752 297.739 42.6395 297.739 39.6462H299.477C299.477 42.4064 300.947 43.0696 303.582 43.0696C305.661 43.0696 306.772 42.5678 306.772 41.2235C306.772 39.5028 304.675 39.1084 302.704 38.499C300.176 37.7283 298.312 37.0293 298.312 34.7529C298.312 32.7634 299.728 31.5804 302.883 31.5804C306.629 31.5804 307.991 33.7851 307.991 35.9359H306.253C306.253 33.9284 304.729 33.086 302.883 33.086C301.234 33.086 300.051 33.4983 300.051 34.735C300.051 35.918 301.001 36.3302 303.062 36.9934C305.518 37.7642 308.511 38.517 308.511 41.1518ZM314.187 31.7597C317.378 31.7597 319.493 32.5483 319.493 35.9538C319.493 39.3594 317.378 40.148 314.187 40.148H312.198V44.396H310.459V31.7597H314.187ZM314.241 38.6424C316.302 38.6424 317.754 38.3019 317.754 35.9538C317.754 33.6058 316.302 33.2653 314.241 33.2653H312.198V38.6424H314.241ZM328.01 33.2653H325.178V42.8904H328.01V44.396H320.607V42.8904H323.439V33.2653H320.607V31.7597H328.01V33.2653ZM330.151 44.396V31.7597H334.471C337.482 31.7597 339.543 32.4587 339.543 35.2907C339.543 37.2264 338.414 38.0151 337.016 38.2481V38.7141H338.593C339.364 38.7141 339.704 39.0726 339.704 39.7896V44.396H337.966V39.449H331.89V44.396H330.151ZM331.89 37.9434H334.471C336.532 37.9434 337.804 37.7821 337.804 35.5954C337.804 33.4266 336.532 33.2653 334.471 33.2653H331.89V37.9434ZM349.119 33.2653H346.287V42.8904H349.119V44.396H341.717V42.8904H344.549V33.2653H341.717V31.7597H349.119V33.2653ZM361.364 31.7597V33.2653H357.027V44.396H355.288V33.2653H350.95V31.7597H361.364ZM362.997 39.6999V31.7597H364.736V39.2698C364.736 41.7612 365.489 43.0696 368.123 43.0696C370.758 43.0696 371.547 41.7612 371.547 39.2698V31.7597H373.285V39.6999C373.285 42.8545 371.636 44.5752 368.123 44.5752C364.628 44.5752 362.997 42.8545 362.997 39.6999ZM384.031 44.396L382.543 39.6282H377.435L375.947 44.396H374.209L378.188 31.7597H381.79L385.77 44.396H384.031ZM377.901 38.1226H382.077L380.231 32.2436H379.747L377.901 38.1226ZM388.588 44.5752C387.836 44.5932 387.423 44.163 387.423 43.4102V31.7597H389.162V43.0696L395.471 42.8904V44.396L388.588 44.5752ZM402.875 38.0689C402.875 34.3945 405.115 31.5804 408.897 31.5804C412.177 31.5804 414.328 33.5162 414.705 36.635H412.966C412.679 34.3765 411.228 33.086 408.897 33.086C406.101 33.086 404.614 35.1114 404.614 38.0689C404.614 41.0442 406.101 43.0696 408.897 43.0696C411.228 43.0696 412.679 41.7612 412.966 39.5028H414.705C414.328 42.6395 412.177 44.5752 408.897 44.5752C405.115 44.5752 402.875 41.7612 402.875 38.0689ZM416.664 39.6999V31.7597H418.402V39.2698C418.402 41.7612 419.155 43.0696 421.79 43.0696C424.425 43.0696 425.213 41.7612 425.213 39.2698V31.7597H426.952V39.6999C426.952 42.8545 425.303 44.5752 421.79 44.5752C418.295 44.5752 416.664 42.8545 416.664 39.6999ZM430.247 44.5752C429.495 44.5932 429.082 44.163 429.082 43.4102V31.7597H430.821V43.0696L437.13 42.8904V44.396L430.247 44.5752ZM445.96 31.7597V33.2653H441.622V44.396H439.884V33.2653H435.546V31.7597H445.96ZM447.593 39.6999V31.7597H449.332V39.2698C449.332 41.7612 450.084 43.0696 452.719 43.0696C455.354 43.0696 456.143 41.7612 456.143 39.2698V31.7597H457.881V39.6999C457.881 42.8545 456.232 44.5752 452.719 44.5752C449.224 44.5752 447.593 42.8545 447.593 39.6999ZM460.012 44.396V31.7597H464.331C467.342 31.7597 469.404 32.4587 469.404 35.2907C469.404 37.2264 468.274 38.0151 466.876 38.2481V38.7141H468.454C469.224 38.7141 469.565 39.0726 469.565 39.7896V44.396H467.826V39.449H461.75V44.396H460.012ZM461.75 37.9434H464.331C466.392 37.9434 467.665 37.7821 467.665 35.5954C467.665 33.4266 466.392 33.2653 464.331 33.2653H461.75V37.9434ZM471.879 44.396V31.7597H479.927V33.2653H473.618V37.3161H479.031V38.8217H473.618V42.8904H479.927V44.396H471.879ZM487.878 44.396V31.7597H496.284V33.2653H489.616V38.033L495.549 37.6745V39.1981L489.616 39.5565V44.396H487.878ZM498.109 39.6999V31.7597H499.848V39.2698C499.848 41.7612 500.6 43.0696 503.235 43.0696C505.87 43.0696 506.659 41.7612 506.659 39.2698V31.7597H508.397V39.6999C508.397 42.8545 506.748 44.5752 503.235 44.5752C499.74 44.5752 498.109 42.8545 498.109 39.6999ZM510.528 44.396V31.7597H514.023L519.812 43.9121H520.296L519.991 42.7291V31.7597H521.748V44.396H518.253L512.445 32.2436H511.961L512.266 33.4266V44.396H510.528ZM528.163 31.7597C531.3 31.7597 534.616 32.6379 534.616 38.0689C534.616 43.5177 531.3 44.396 528.163 44.396H524.04V31.7597H528.163ZM528.163 42.8904C530.403 42.8904 532.859 42.5498 532.859 38.0689C532.859 33.6058 530.403 33.2653 528.163 33.2653H525.779V42.8904H528.163Z" fill="white"/>
<path d="M558.681 36.7783C561.011 35.8642 561.89 34.6454 561.89 31.7597H567.464V44.396H564.596V34.0898L565.134 32.4766H564.417C564.202 35.7388 563.574 38.1764 559.685 39.3773L558.681 36.7783ZM575.352 31.5804C579.17 31.5804 581.428 34.2152 581.428 38.0689C581.428 41.9404 579.17 44.5752 575.352 44.5752C571.516 44.5752 569.258 41.9404 569.258 38.0689C569.258 34.2152 571.516 31.5804 575.352 31.5804ZM575.352 34.0898C573.326 34.0898 572.126 35.4699 572.126 38.0689C572.126 38.6962 572.197 39.2339 572.323 39.7179L577.144 34.5737C576.66 34.2511 576.051 34.0898 575.352 34.0898ZM575.352 42.0659C577.377 42.0659 578.56 40.6858 578.56 38.0689C578.56 37.4595 578.489 36.9038 578.363 36.4199L573.542 41.564C574.043 41.9046 574.653 42.0659 575.352 42.0659ZM595.279 29.9852L597.305 30.7738L591.247 46.5289L589.221 45.7403L595.279 29.9852ZM587.554 39.3594C585.063 39.3594 583.396 37.4774 583.396 35.201C583.396 32.9247 585.063 31.0427 587.554 31.0427C590.046 31.0427 591.713 32.9247 591.713 35.201C591.713 37.4774 590.046 39.3594 587.554 39.3594ZM587.554 37.2085C588.737 37.2085 589.562 36.2944 589.562 35.201C589.562 34.1077 588.737 33.1936 587.554 33.1936C586.371 33.1936 585.547 34.1077 585.547 35.201C585.547 36.2944 586.371 37.2085 587.554 37.2085ZM598.918 45.6507C596.427 45.6507 594.76 43.7687 594.76 41.4923C594.76 39.216 596.427 37.334 598.918 37.334C601.409 37.334 603.076 39.216 603.076 41.4923C603.076 43.7687 601.409 45.6507 598.918 45.6507ZM598.918 43.4998C600.101 43.4998 600.925 42.5857 600.925 41.4923C600.925 40.399 600.101 39.4849 598.918 39.4849C597.735 39.4849 596.911 40.399 596.911 41.4923C596.911 42.5857 597.735 43.4998 598.918 43.4998Z" fill="white"/>
<path d="M328.884 102.864L394.642 102.332C400.501 102.284 406.084 104.819 409.904 109.262L449.463 155.271" stroke="url(#paint15_linear_6254_673)" stroke-width="0.995772" stroke-miterlimit="10"/>
<g filter="url(#filter2_d_6254_673)">
<rect x="134.575" y="81.8672" width="246.923" height="46.8012" rx="23.4006" fill="#102644"/>
<rect x="135.073" y="82.3651" width="245.927" height="45.8054" rx="22.9027" stroke="url(#paint16_linear_6254_673)" stroke-width="0.995772"/>
</g>
<path d="M158.676 111.955V99.3182H166.724V100.824H160.415V104.875H165.828V106.38H160.415V110.449H166.724V111.955H158.676ZM168.741 111.955V99.3182H172.218L175.462 111.471H175.946L179.19 99.3182H182.667V111.955H180.929V100.985L181.216 99.8022H180.75L177.434 111.955H173.956L170.658 99.8022H170.175L170.479 100.985V111.955H168.741ZM188.712 99.3182C191.903 99.3182 194.018 100.107 194.018 103.512C194.018 106.918 191.903 107.707 188.712 107.707H186.723V111.955H184.984V99.3182H188.712ZM188.766 106.201C190.827 106.201 192.279 105.86 192.279 103.512C192.279 101.164 190.827 100.824 188.766 100.824H186.723V106.201H188.766ZM203.699 111.955L202.211 107.187H197.103L195.615 111.955H193.877L197.856 99.3182H201.459L205.438 111.955H203.699ZM197.569 105.681H201.745L199.899 99.8022H199.415L197.569 105.681ZM214.815 99.3182V100.824H210.477V111.955H208.738V100.824H204.401V99.3182H214.815ZM225.418 99.3182H227.174V111.955H225.418V106.488H218.195V111.955H216.456V99.3182H218.195V104.982H225.418V99.3182ZM238.006 99.3182H239.87L235.264 107.366V111.955H233.525V107.366L228.937 99.3182H230.801L234.153 105.305V106.434H234.637V105.305L238.006 99.3182ZM247.455 111.955V99.3182H255.861V100.824H249.194V105.592L255.127 105.233V106.757L249.194 107.115V111.955H247.455ZM257.686 107.259V99.3182H259.425V106.828C259.425 109.32 260.178 110.628 262.813 110.628C265.448 110.628 266.236 109.32 266.236 106.828V99.3182H267.975V107.259C267.975 110.413 266.326 112.134 262.813 112.134C259.318 112.134 257.686 110.413 257.686 107.259ZM270.105 111.955V99.3182H273.6L279.39 111.471H279.874L279.569 110.288V99.3182H281.325V111.955H277.83L272.023 99.8022H271.539L271.844 100.985V111.955H270.105ZM287.741 99.3182C290.877 99.3182 294.193 100.197 294.193 105.627C294.193 111.076 290.877 111.955 287.741 111.955H283.618V99.3182H287.741ZM287.741 110.449C289.981 110.449 292.437 110.108 292.437 105.627C292.437 101.164 289.981 100.824 287.741 100.824H285.357V110.449H287.741Z" fill="white"/>
<path d="M327.45 104.337C329.78 103.423 330.658 102.204 330.658 99.3182H336.233V111.955H333.365V101.648L333.902 100.035H333.185C332.97 103.297 332.343 105.735 328.454 106.936L327.45 104.337ZM344.12 99.139C347.938 99.139 350.197 101.774 350.197 105.627C350.197 109.499 347.938 112.134 344.12 112.134C340.285 112.134 338.026 109.499 338.026 105.627C338.026 101.774 340.285 99.139 344.12 99.139ZM344.12 101.648C342.095 101.648 340.894 103.028 340.894 105.627C340.894 106.255 340.966 106.793 341.091 107.276L345.913 102.132C345.429 101.81 344.819 101.648 344.12 101.648ZM344.12 109.624C346.146 109.624 347.329 108.244 347.329 105.627C347.329 105.018 347.257 104.462 347.132 103.978L342.31 109.123C342.812 109.463 343.421 109.624 344.12 109.624ZM364.048 97.5438L366.073 98.3324L360.015 114.088L357.99 113.299L364.048 97.5438ZM356.323 106.918C353.831 106.918 352.164 105.036 352.164 102.76C352.164 100.483 353.831 98.6013 356.323 98.6013C358.814 98.6013 360.481 100.483 360.481 102.76C360.481 105.036 358.814 106.918 356.323 106.918ZM356.323 104.767C357.506 104.767 358.33 103.853 358.33 102.76C358.33 101.666 357.506 100.752 356.323 100.752C355.14 100.752 354.315 101.666 354.315 102.76C354.315 103.853 355.14 104.767 356.323 104.767ZM367.687 113.209C365.195 113.209 363.528 111.327 363.528 109.051C363.528 106.775 365.195 104.893 367.687 104.893C370.178 104.893 371.845 106.775 371.845 109.051C371.845 111.327 370.178 113.209 367.687 113.209ZM367.687 111.058C368.87 111.058 369.694 110.144 369.694 109.051C369.694 107.958 368.87 107.043 367.687 107.043C366.504 107.043 365.679 107.958 365.679 109.051C365.679 110.144 366.504 111.058 367.687 111.058Z" fill="white"/>
<path d="M273.573 176.575L392.844 176.575" stroke="url(#paint17_linear_6254_673)" stroke-width="0.995772" stroke-miterlimit="10"/>
<g filter="url(#filter3_d_6254_673)">
<rect x="30.0459" y="152.624" width="297.88" height="46.8012" rx="23.4006" fill="#102644"/>
<rect x="30.5438" y="153.121" width="296.884" height="45.8054" rx="22.9027" stroke="url(#paint18_linear_6254_673)" stroke-width="0.995772"/>
</g>
<path d="M65.7903 170.075V171.58H61.4527V182.711H59.7141V171.58H55.3765V170.075H65.7903ZM67.4317 182.711V170.075H75.4795V171.58H69.1703V175.631H74.5833V177.137H69.1703V181.205H75.4795V182.711H67.4317ZM76.5995 176.384C76.5995 172.709 78.84 169.895 82.6219 169.895C85.902 169.895 88.0528 171.831 88.4292 174.95H86.6906C86.4039 172.691 84.952 171.401 82.6219 171.401C79.8258 171.401 78.3381 173.426 78.3381 176.384C78.3381 179.359 79.8258 181.385 82.6219 181.385C84.952 181.385 86.4039 180.076 86.6906 177.818H88.4292C88.0528 180.954 85.902 182.89 82.6219 182.89C78.84 182.89 76.5995 180.076 76.5995 176.384ZM99.4111 170.075H101.168V182.711H99.4111V177.244H92.1878V182.711H90.4492V170.075H92.1878V175.739H99.4111V170.075ZM109.458 182.711V170.075H117.865V171.58H111.197V176.348L117.13 175.989V177.513L111.197 177.871V182.711H109.458ZM118.854 176.384C118.854 172.709 121.076 169.895 124.858 169.895C128.622 169.895 130.845 172.709 130.845 176.384C130.845 180.076 128.622 182.89 124.858 182.89C121.076 182.89 118.854 180.076 118.854 176.384ZM120.592 176.384C120.592 179.305 121.99 181.385 124.858 181.385C127.726 181.385 129.106 179.305 129.106 176.384C129.106 173.48 127.726 171.401 124.858 171.401C121.99 171.401 120.592 173.48 120.592 176.384ZM132.861 182.711V170.075H137.181C140.192 170.075 142.253 170.774 142.253 173.606C142.253 175.541 141.124 176.33 139.726 176.563V177.029H141.303C142.074 177.029 142.414 177.388 142.414 178.104V182.711H140.676V177.764H134.6V182.711H132.861ZM134.6 176.258H137.181C139.242 176.258 140.514 176.097 140.514 173.91C140.514 171.742 139.242 171.58 137.181 171.58H134.6V176.258ZM150.536 176.384C150.536 172.656 152.919 169.895 156.576 169.895C159.748 169.895 161.63 171.831 162.007 174.591H160.268C159.981 172.62 158.942 171.401 156.576 171.401C153.762 171.401 152.274 173.373 152.274 176.384C152.274 179.413 153.385 181.385 156.164 181.385C158.512 181.385 159.659 180.04 159.623 177.298H155.572V175.9H161.881C162.67 175.9 163.046 176.276 163.046 176.993V182.711H161.308V178.069L161.595 176.384H161.129C161.111 180.703 159.426 182.89 156.128 182.89C152.4 182.89 150.536 180.13 150.536 176.384ZM164.644 176.384C164.644 172.709 166.866 169.895 170.648 169.895C174.412 169.895 176.635 172.709 176.635 176.384C176.635 180.076 174.412 182.89 170.648 182.89C166.866 182.89 164.644 180.076 164.644 176.384ZM166.382 176.384C166.382 179.305 167.78 181.385 170.648 181.385C173.516 181.385 174.896 179.305 174.896 176.384C174.896 173.48 173.516 171.401 170.648 171.401C167.78 171.401 166.382 173.48 166.382 176.384ZM178.402 176.384C178.402 172.709 180.624 169.895 184.406 169.895C188.17 169.895 190.393 172.709 190.393 176.384C190.393 180.076 188.17 182.89 184.406 182.89C180.624 182.89 178.402 180.076 178.402 176.384ZM180.14 176.384C180.14 179.305 181.538 181.385 184.406 181.385C187.274 181.385 188.654 179.305 188.654 176.384C188.654 173.48 187.274 171.401 184.406 171.401C181.538 171.401 180.14 173.48 180.14 176.384ZM196.531 170.075C199.668 170.075 202.984 170.953 202.984 176.384C202.984 181.833 199.668 182.711 196.531 182.711H192.409V170.075H196.531ZM196.531 181.205C198.772 181.205 201.227 180.865 201.227 176.384C201.227 171.921 198.772 171.58 196.531 171.58H194.147V181.205H196.531ZM211.085 182.711V170.075H219.492V171.58H212.824V176.348L218.757 175.989V177.513L212.824 177.871V182.711H211.085ZM221.317 178.015V170.075H223.055V177.585C223.055 180.076 223.808 181.385 226.443 181.385C229.078 181.385 229.866 180.076 229.866 177.585V170.075H231.605V178.015C231.605 181.169 229.956 182.89 226.443 182.89C222.948 182.89 221.317 181.169 221.317 178.015ZM233.735 182.711V170.075H237.23L243.02 182.227H243.504L243.199 181.044V170.075H244.956V182.711H241.46L235.653 170.559H235.169L235.474 171.742V182.711H233.735Z" fill="white"/>
<path d="M273.879 175.093C276.209 174.179 277.087 172.96 277.087 170.075H282.661V182.711H279.793V172.405L280.331 170.792H279.614C279.399 174.054 278.772 176.491 274.882 177.692L273.879 175.093ZM284.455 178.069H287.323C287.323 179.592 288.165 180.381 290.406 180.381C292.431 180.381 293.094 179.592 293.094 178.015C293.094 176.671 292.431 175.989 291.087 175.989C290.029 175.989 289.187 176.42 288.47 177.334L285.244 175.47V170.075H294.958V172.584H288.112V174.394L287.574 176.007L288.165 176.348C288.846 174.376 290.173 173.48 291.947 173.48C294.17 173.48 295.962 175.04 295.962 177.943C295.962 181.42 293.74 182.89 290.406 182.89C287.072 182.89 284.455 181.51 284.455 178.069ZM309.286 168.3L311.312 169.089L305.254 184.844L303.228 184.055L309.286 168.3ZM301.561 177.674C299.07 177.674 297.403 175.792 297.403 173.516C297.403 171.24 299.07 169.358 301.561 169.358C304.053 169.358 305.72 171.24 305.72 173.516C305.72 175.792 304.053 177.674 301.561 177.674ZM301.561 175.523C302.744 175.523 303.569 174.609 303.569 173.516C303.569 172.423 302.744 171.509 301.561 171.509C300.378 171.509 299.554 172.423 299.554 173.516C299.554 174.609 300.378 175.523 301.561 175.523ZM312.925 183.966C310.434 183.966 308.767 182.084 308.767 179.807C308.767 177.531 310.434 175.649 312.925 175.649C315.416 175.649 317.083 177.531 317.083 179.807C317.083 182.084 315.416 183.966 312.925 183.966ZM312.925 181.815C314.108 181.815 314.933 180.901 314.933 179.807C314.933 178.714 314.108 177.8 312.925 177.8C311.742 177.8 310.918 178.714 310.918 179.807C310.918 180.901 311.742 181.815 312.925 181.815Z" fill="white"/>
<path d="M275.908 261.947L378.663 261.946C385.778 261.946 392.353 258.151 395.91 251.989L397.729 248.839" stroke="url(#paint19_linear_6254_673)" stroke-width="0.995772" stroke-miterlimit="10"/>
<g filter="url(#filter4_d_6254_673)">
<rect x="39.0576" y="236.049" width="295.624" height="46.8012" rx="23.4006" fill="#102644"/>
<rect x="39.5555" y="236.547" width="294.628" height="45.8054" rx="22.9027" stroke="url(#paint20_linear_6254_673)" stroke-width="0.995772"/>
</g>
<path d="M68.8986 253.5H70.6551V266.136H68.8986V260.669H61.6753V266.136H59.9367V253.5H61.6753V259.164H68.8986V253.5ZM72.9595 266.136V253.5H81.0073V255.005H74.6981V259.056H80.1111V260.562H74.6981V264.631H81.0073V266.136H72.9595ZM92.3045 266.136L90.8169 261.368H85.7085L84.2209 266.136H82.4822L86.4614 253.5H90.0641L94.0432 266.136H92.3045ZM86.1746 259.863H90.3508L88.5047 253.984H88.0207L86.1746 259.863ZM96.862 266.315C96.1092 266.333 95.6969 265.903 95.6969 265.15V253.5H97.4355V264.81L103.745 264.631V266.136L96.862 266.315ZM112.792 255.005H109.96V264.631H112.792V266.136H105.39V264.631H108.222V255.005H105.39V253.5H112.792V255.005ZM114.934 266.136V253.5H118.429L124.218 265.652H124.702L124.397 264.469V253.5H126.154V266.136H122.659L116.851 253.984H116.367L116.672 255.167V266.136H114.934ZM128.075 259.809C128.075 256.081 130.459 253.321 134.115 253.321C137.288 253.321 139.17 255.256 139.546 258.017H137.807C137.521 256.045 136.481 254.826 134.115 254.826C131.301 254.826 129.813 256.798 129.813 259.809C129.813 262.838 130.925 264.81 133.703 264.81C136.051 264.81 137.198 263.466 137.162 260.723H133.111V259.325H139.421C140.209 259.325 140.586 259.702 140.586 260.419V266.136H138.847V261.494L139.134 259.809H138.668C138.65 264.129 136.965 266.315 133.667 266.315C129.939 266.315 128.075 263.555 128.075 259.809ZM157.853 253.5H159.609V266.136H157.853V260.669H150.63V266.136H148.891V253.5H150.63V259.164H157.853V253.5ZM171.072 266.136L169.584 261.368H164.476L162.988 266.136H161.249L165.228 253.5H168.831L172.81 266.136H171.072ZM164.942 259.863H169.118L167.272 253.984H166.788L164.942 259.863ZM174.464 266.136V253.5H177.959L183.749 265.652H184.233L183.928 264.469V253.5H185.684V266.136H182.189L176.382 253.984H175.898L176.203 255.167V266.136H174.464ZM192.099 253.5C195.236 253.5 198.552 254.378 198.552 259.809C198.552 265.258 195.236 266.136 192.099 266.136H187.977V253.5H192.099ZM192.099 264.631C194.34 264.631 196.795 264.29 196.795 259.809C196.795 255.346 194.34 255.005 192.099 255.005H189.716V264.631H192.099ZM210.832 262.892C210.832 264.828 209.631 266.315 205.867 266.315C201.44 266.315 200.059 264.38 200.059 261.386H201.798C201.798 264.147 203.268 264.81 205.903 264.81C207.982 264.81 209.093 264.308 209.093 262.964C209.093 261.243 206.996 260.849 205.024 260.239C202.497 259.469 200.633 258.77 200.633 256.493C200.633 254.504 202.049 253.321 205.204 253.321C208.95 253.321 210.312 255.525 210.312 257.676H208.573C208.573 255.669 207.05 254.826 205.204 254.826C203.555 254.826 202.372 255.239 202.372 256.475C202.372 257.658 203.322 258.07 205.383 258.734C207.838 259.504 210.832 260.257 210.832 262.892ZM218.591 266.136V253.5H226.997V255.005H220.33V259.773L226.262 259.415V260.938L220.33 261.297V266.136H218.591ZM228.822 261.44V253.5H230.561V261.01C230.561 263.501 231.314 264.81 233.949 264.81C236.583 264.81 237.372 263.501 237.372 261.01V253.5H239.111V261.44C239.111 264.595 237.462 266.315 233.949 266.315C230.453 266.315 228.822 264.595 228.822 261.44ZM241.241 266.136V253.5H244.736L250.526 265.652H251.009L250.705 264.469V253.5H252.461V266.136H248.966L243.159 253.984H242.675L242.98 255.167V266.136H241.241ZM258.876 253.5C262.013 253.5 265.329 254.378 265.329 259.809C265.329 265.258 262.013 266.136 258.876 266.136H254.754V253.5H258.876ZM258.876 264.631C261.117 264.631 263.572 264.29 263.572 259.809C263.572 255.346 261.117 255.005 258.876 255.005H256.493V264.631H258.876Z" fill="white"/>
<path d="M273.385 259.289C273.385 255.041 276.038 253.321 279.354 253.321C282.347 253.321 284.426 254.808 284.426 257.569C284.426 261.817 280.196 262.354 274.281 263.448V264.165L276.074 263.627H284.426V266.136H273.564V261.118C274.855 260.938 281.558 260.239 281.558 257.443C281.558 256.637 281.021 255.83 279.389 255.83C277.221 255.83 276.253 256.87 276.253 259.289H273.385ZM291.959 253.321C295.777 253.321 298.035 255.955 298.035 259.809C298.035 263.681 295.777 266.315 291.959 266.315C288.124 266.315 285.865 263.681 285.865 259.809C285.865 255.955 288.124 253.321 291.959 253.321ZM291.959 255.83C289.934 255.83 288.733 257.21 288.733 259.809C288.733 260.436 288.805 260.974 288.93 261.458L293.752 256.314C293.268 255.991 292.658 255.83 291.959 255.83ZM291.959 263.806C293.985 263.806 295.168 262.426 295.168 259.809C295.168 259.2 295.096 258.644 294.97 258.16L290.149 263.304C290.651 263.645 291.26 263.806 291.959 263.806ZM311.887 251.725L313.912 252.514L307.854 268.269L305.829 267.481L311.887 251.725ZM304.162 261.1C301.67 261.1 300.003 259.218 300.003 256.941C300.003 254.665 301.67 252.783 304.162 252.783C306.653 252.783 308.32 254.665 308.32 256.941C308.32 259.218 306.653 261.1 304.162 261.1ZM304.162 258.949C305.345 258.949 306.169 258.035 306.169 256.941C306.169 255.848 305.345 254.934 304.162 254.934C302.979 254.934 302.154 255.848 302.154 256.941C302.154 258.035 302.979 258.949 304.162 258.949ZM315.525 267.391C313.034 267.391 311.367 265.509 311.367 263.233C311.367 260.956 313.034 259.074 315.525 259.074C318.017 259.074 319.684 260.956 319.684 263.233C319.684 265.509 318.017 267.391 315.525 267.391ZM315.525 265.24C316.708 265.24 317.533 264.326 317.533 263.233C317.533 262.139 316.708 261.225 315.525 261.225C314.342 261.225 313.518 262.139 313.518 263.233C313.518 264.326 314.342 265.24 315.525 265.24Z" fill="white"/>
<path d="M644.886 102.816L605.886 154.232C602.191 159.103 596.464 162.007 590.35 162.109L544.267 162.876" stroke="url(#paint21_linear_6254_673)" stroke-width="0.995772" stroke-miterlimit="10"/>
<g filter="url(#filter5_d_6254_673)">
<rect x="594.85" y="92.7451" width="289.09" height="46.8012" rx="23.4006" fill="#102644"/>
<rect x="595.347" y="93.243" width="288.094" height="45.8054" rx="22.9027" stroke="url(#paint22_linear_6254_673)" stroke-width="0.995772"/>
</g>
<path d="M618.233 110.196H619.9L622.374 122.349H622.84L625.224 110.196H628.844L631.228 122.349H631.694L634.168 110.196H635.835L633.254 122.833H629.669L627.267 110.68H626.801L624.399 122.833H620.814L618.233 110.196ZM637.312 122.833V110.196H645.36V111.702H639.05V115.753H644.463V117.258H639.05V121.327H645.36V122.833H637.312ZM647.376 122.833V110.196H650.925C654.116 110.196 655.854 110.806 655.854 113.297C655.854 115.233 654.546 115.842 653.238 115.95V116.416C655.173 116.47 656.787 117.133 656.787 119.481C656.787 122.08 654.725 122.833 651.624 122.833H647.376ZM649.115 115.502H651.051C652.933 115.502 654.116 115.269 654.116 113.602C654.116 111.809 652.933 111.702 651.051 111.702H649.115V115.502ZM649.115 121.327H651.75C653.811 121.327 655.048 121.04 655.048 119.176C655.048 117.42 653.811 117.007 651.75 117.007H649.115V121.327ZM658.852 118.011H660.59C660.59 120.592 661.702 121.506 664.193 121.506C666.398 121.506 667.312 120.664 667.312 119.104C667.312 117.563 666.452 116.953 665.018 116.953H663.261V115.448H665.018C666.452 115.448 667.133 114.856 667.133 113.62C667.133 112.365 666.398 111.523 664.193 111.523C661.702 111.523 660.77 112.437 660.77 114.355H659.031C659.031 111.451 660.949 110.017 664.193 110.017C667.222 110.017 668.871 111.361 668.871 113.387C668.871 115 667.939 115.717 666.326 115.968V116.452C667.939 116.738 669.051 117.366 669.051 119.355C669.051 121.667 667.222 123.012 664.193 123.012C660.949 123.012 658.852 121.578 658.852 118.011ZM677.168 122.833V110.196H685.216V111.702H678.907V115.753H684.32V117.258H678.907V121.327H685.216V122.833H677.168ZM691.355 110.196C694.492 110.196 697.808 111.074 697.808 116.505C697.808 121.954 694.492 122.833 691.355 122.833H687.233V110.196H691.355ZM691.355 121.327C693.596 121.327 696.051 120.986 696.051 116.505C696.051 112.042 693.596 111.702 691.355 111.702H688.971V121.327H691.355ZM699.739 118.136V110.196H701.478V117.706C701.478 120.198 702.231 121.506 704.866 121.506C707.5 121.506 708.289 120.198 708.289 117.706V110.196H710.028V118.136C710.028 121.291 708.379 123.012 704.866 123.012C701.371 123.012 699.739 121.291 699.739 118.136ZM728.204 119.588C728.204 121.524 727.003 123.012 723.239 123.012C718.812 123.012 717.432 121.076 717.432 118.083H719.17C719.17 120.843 720.64 121.506 723.275 121.506C725.354 121.506 726.465 121.004 726.465 119.66C726.465 117.939 724.368 117.545 722.397 116.936C719.869 116.165 718.005 115.466 718.005 113.189C718.005 111.2 719.421 110.017 722.576 110.017C726.322 110.017 727.684 112.222 727.684 114.372H725.945C725.945 112.365 724.422 111.523 722.576 111.523C720.927 111.523 719.744 111.935 719.744 113.172C719.744 114.355 720.694 114.767 722.755 115.43C725.211 116.201 728.204 116.953 728.204 119.588ZM730.152 122.833V110.196H738.2V111.702H731.891V115.753H737.304V117.258H731.891V121.327H738.2V122.833H730.152ZM740.217 122.833V110.196H748.264V111.702H741.955V115.753H747.368V117.258H741.955V121.327H748.264V122.833H740.217ZM754.404 110.196C757.54 110.196 760.856 111.074 760.856 116.505C760.856 121.954 757.54 122.833 754.404 122.833H750.281V110.196H754.404ZM754.404 121.327C756.644 121.327 759.1 120.986 759.1 116.505C759.1 112.042 756.644 111.702 754.404 111.702H752.02V121.327H754.404ZM768.958 122.833V110.196H777.364V111.702H770.696V116.47L776.629 116.111V117.635L770.696 117.993V122.833H768.958ZM779.189 118.136V110.196H780.928V117.706C780.928 120.198 781.681 121.506 784.315 121.506C786.95 121.506 787.739 120.198 787.739 117.706V110.196H789.477V118.136C789.477 121.291 787.829 123.012 784.315 123.012C780.82 123.012 779.189 121.291 779.189 118.136ZM791.608 122.833V110.196H795.103L800.892 122.349H801.376L801.072 121.166V110.196H802.828V122.833H799.333L793.526 110.68H793.042L793.346 111.863V122.833H791.608Z" fill="white"/>
<path d="M818.8 115.986C818.8 111.738 821.453 110.017 824.769 110.017C827.762 110.017 829.841 111.505 829.841 114.265C829.841 118.513 825.611 119.051 819.696 120.144V120.861L821.489 120.323H829.841V122.833H818.979V117.814C820.27 117.635 826.973 116.936 826.973 114.139C826.973 113.333 826.436 112.526 824.804 112.526C822.636 112.526 821.668 113.566 821.668 115.986H818.8ZM830.738 118.19H833.605C833.605 119.714 834.448 120.502 836.688 120.502C838.714 120.502 839.377 119.714 839.377 118.136C839.377 116.792 838.714 116.111 837.369 116.111C836.312 116.111 835.469 116.541 834.753 117.455L831.526 115.591V110.196H841.241V112.706H834.394V114.516L833.856 116.129L834.448 116.47C835.129 114.498 836.455 113.602 838.23 113.602C840.452 113.602 842.245 115.161 842.245 118.065C842.245 121.542 840.022 123.012 836.688 123.012C833.354 123.012 830.738 121.632 830.738 118.19ZM855.569 108.422L857.594 109.21L851.536 124.965L849.511 124.177L855.569 108.422ZM847.844 117.796C845.352 117.796 843.685 115.914 843.685 113.638C843.685 111.361 845.352 109.479 847.844 109.479C850.335 109.479 852.002 111.361 852.002 113.638C852.002 115.914 850.335 117.796 847.844 117.796ZM847.844 115.645C849.027 115.645 849.851 114.731 849.851 113.638C849.851 112.544 849.027 111.63 847.844 111.63C846.661 111.63 845.836 112.544 845.836 113.638C845.836 114.731 846.661 115.645 847.844 115.645ZM859.208 124.087C856.716 124.087 855.049 122.205 855.049 119.929C855.049 117.653 856.716 115.771 859.208 115.771C861.699 115.771 863.366 117.653 863.366 119.929C863.366 122.205 861.699 124.087 859.208 124.087ZM859.208 121.936C860.391 121.936 861.215 121.022 861.215 119.929C861.215 118.835 860.391 117.921 859.208 117.921C858.025 117.921 857.2 118.835 857.2 119.929C857.2 121.022 858.025 121.936 859.208 121.936Z" fill="white"/>
<path d="M558.194 232.095L580.491 276.653C583.865 283.397 590.76 287.657 598.301 287.657L661.359 287.657" stroke="url(#paint23_linear_6254_673)" stroke-width="0.995772" stroke-miterlimit="10"/>
<g filter="url(#filter6_d_6254_673)">
<rect x="602.236" y="266.136" width="289.09" height="46.8012" rx="23.4006" fill="#102644"/>
<rect x="602.734" y="266.634" width="288.094" height="45.8054" rx="22.9027" stroke="url(#paint24_linear_6254_673)" stroke-width="0.995772"/>
</g>
<path d="M626.158 289.897C626.158 286.168 628.542 283.408 632.198 283.408C635.371 283.408 637.253 285.344 637.629 288.104H635.89C635.604 286.132 634.564 284.914 632.198 284.914C629.384 284.914 627.896 286.885 627.896 289.897C627.896 292.926 629.008 294.897 631.786 294.897C634.134 294.897 635.281 293.553 635.245 290.811H631.194V289.413H637.504C638.292 289.413 638.669 289.789 638.669 290.506V296.224H636.93V291.581L637.217 289.897H636.751C636.733 294.216 635.048 296.403 631.75 296.403C628.022 296.403 626.158 293.643 626.158 289.897ZM640.62 296.224V283.587H644.94C647.951 283.587 650.012 284.286 650.012 287.118C650.012 289.054 648.883 289.843 647.485 290.076V290.542H649.062C649.833 290.542 650.174 290.9 650.174 291.617V296.224H648.435V291.277H642.359V296.224H640.62ZM642.359 289.771H644.94C647.001 289.771 648.274 289.61 648.274 287.423C648.274 285.254 647.001 285.093 644.94 285.093H642.359V289.771ZM652.488 296.224V283.587H660.536V285.093H654.226V289.144H659.639V290.649H654.226V294.718H660.536V296.224H652.488ZM662.552 296.224V283.587H670.6V285.093H664.291V289.144H669.704V290.649H664.291V294.718H670.6V296.224H662.552ZM672.617 296.224V283.587H676.112L681.902 295.74H682.386L682.081 294.557V283.587H683.837V296.224H680.342L674.535 284.071H674.051L674.356 285.254V296.224H672.617ZM692.116 296.224V283.587H700.164V285.093H693.855V289.144H699.268V290.649H693.855V294.718H700.164V296.224H692.116ZM711.461 296.224L709.974 291.456H704.865L703.378 296.224H701.639L705.618 283.587H709.221L713.2 296.224H711.461ZM705.331 289.95H709.508L707.662 284.071H707.178L705.331 289.95ZM714.854 296.224V283.587H719.173C722.185 283.587 724.246 284.286 724.246 287.118C724.246 289.054 723.117 289.843 721.719 290.076V290.542H723.296C724.067 290.542 724.407 290.9 724.407 291.617V296.224H722.669V291.277H716.592V296.224H714.854ZM716.592 289.771H719.173C721.235 289.771 722.507 289.61 722.507 287.423C722.507 285.254 721.235 285.093 719.173 285.093H716.592V289.771ZM735.81 283.587V285.093H731.472V296.224H729.734V285.093H725.396V283.587H735.81ZM746.413 283.587H748.17V296.224H746.413V290.757H739.19V296.224H737.451V283.587H739.19V289.251H746.413V283.587ZM756.46 296.224V283.587H764.867V285.093H758.199V289.861L764.132 289.502V291.026L758.199 291.384V296.224H756.46ZM766.692 291.528V283.587H768.43V291.097C768.43 293.589 769.183 294.897 771.818 294.897C774.453 294.897 775.241 293.589 775.241 291.097V283.587H776.98V291.528C776.98 294.682 775.331 296.403 771.818 296.403C768.323 296.403 766.692 294.682 766.692 291.528ZM779.11 296.224V283.587H782.605L788.395 295.74H788.879L788.574 294.557V283.587H790.331V296.224H786.835L781.028 284.071H780.544L780.849 285.254V296.224H779.11Z" fill="white"/>
<path d="M826.185 289.377C826.185 285.129 828.837 283.408 832.153 283.408C835.147 283.408 837.226 284.896 837.226 287.656C837.226 291.904 832.996 292.442 827.081 293.535V294.252L828.873 293.714H837.226V296.224H826.364V291.205C827.654 291.026 834.358 290.327 834.358 287.531C834.358 286.724 833.82 285.917 832.189 285.917C830.02 285.917 829.053 286.957 829.053 289.377H826.185ZM844.759 283.408C848.577 283.408 850.835 286.043 850.835 289.897C850.835 293.768 848.577 296.403 844.759 296.403C840.923 296.403 838.665 293.768 838.665 289.897C838.665 286.043 840.923 283.408 844.759 283.408ZM844.759 285.917C842.734 285.917 841.533 287.298 841.533 289.897C841.533 290.524 841.604 291.062 841.73 291.545L846.551 286.401C846.068 286.079 845.458 285.917 844.759 285.917ZM844.759 293.894C846.784 293.894 847.967 292.513 847.967 289.897C847.967 289.287 847.896 288.731 847.77 288.248L842.949 293.392C843.451 293.732 844.06 293.894 844.759 293.894ZM864.687 281.813L866.712 282.601L860.654 298.357L858.628 297.568L864.687 281.813ZM856.961 291.187C854.47 291.187 852.803 289.305 852.803 287.029C852.803 284.752 854.47 282.87 856.961 282.87C859.453 282.87 861.12 284.752 861.12 287.029C861.12 289.305 859.453 291.187 856.961 291.187ZM856.961 289.036C858.144 289.036 858.969 288.122 858.969 287.029C858.969 285.935 858.144 285.021 856.961 285.021C855.778 285.021 854.954 285.935 854.954 287.029C854.954 288.122 855.778 289.036 856.961 289.036ZM868.325 297.478C865.834 297.478 864.167 295.596 864.167 293.32C864.167 291.044 865.834 289.162 868.325 289.162C870.817 289.162 872.484 291.044 872.484 293.32C872.484 295.596 870.817 297.478 868.325 297.478ZM868.325 295.327C869.508 295.327 870.333 294.413 870.333 293.32C870.333 292.227 869.508 291.312 868.325 291.312C867.142 291.312 866.318 292.227 866.318 293.32C866.318 294.413 867.142 295.327 868.325 295.327Z" fill="white"/>
<defs>
<filter id="filter0_ddd_6254_673" x="244.179" y="15.0323" width="476.979" height="452.812" filterUnits="userSpaceOnUse" color-interpolation-filters="sRGB">
<feFlood flood-opacity="0" result="BackgroundImageFix"/>
<feColorMatrix in="SourceAlpha" type="matrix" values="0 0 0 0 0 0 0 0 0 0 0 0 0 0 0 0 0 0 127 0" result="hardAlpha"/>
<feOffset dy="-1.28418"/>
<feGaussianBlur stdDeviation="6.42091"/>
<feComposite in2="hardAlpha" operator="out"/>
<feColorMatrix type="matrix" values="0 0 0 0 1 0 0 0 0 0.673077 0 0 0 0 0.705769 0 0 0 1 0"/>
<feBlend mode="normal" in2="BackgroundImageFix" result="effect1_dropShadow_6254_673"/>
<feColorMatrix in="SourceAlpha" type="matrix" values="0 0 0 0 0 0 0 0 0 0 0 0 0 0 0 0 0 0 127 0" result="hardAlpha"/>
<feOffset dy="5.13673"/>
<feGaussianBlur stdDeviation="18.825"/>
<feComposite in2="hardAlpha" operator="out"/>
<feColorMatrix type="matrix" values="0 0 0 0 1 0 0 0 0 0.754808 0 0 0 0 0.754808 0 0 0 1 0"/>
<feBlend mode="normal" in2="effect1_dropShadow_6254_673" result="effect2_dropShadow_6254_673"/>
<feColorMatrix in="SourceAlpha" type="matrix" values="0 0 0 0 0 0 0 0 0 0 0 0 0 0 0 0 0 0 127 0" result="hardAlpha"/>
<feOffset dy="1.11721"/>
<feGaussianBlur stdDeviation="56.6985"/>
<feComposite in2="hardAlpha" operator="out"/>
<feColorMatrix type="matrix" values="0 0 0 0 0.992157 0 0 0 0 0.501961 0 0 0 0 0.580392 0 0 0 1 0"/>
<feBlend mode="normal" in2="effect2_dropShadow_6254_673" result="effect3_dropShadow_6254_673"/>
<feBlend mode="normal" in="SourceGraphic" in2="effect3_dropShadow_6254_673" result="shape"/>
</filter>
<filter id="filter1_d_6254_673" x="251.307" y="0.367793" width="391.296" height="106.548" filterUnits="userSpaceOnUse" color-interpolation-filters="sRGB">
<feFlood flood-opacity="0" result="BackgroundImageFix"/>
<feColorMatrix in="SourceAlpha" type="matrix" values="0 0 0 0 0 0 0 0 0 0 0 0 0 0 0 0 0 0 127 0" result="hardAlpha"/>
<feOffset dy="15.9323"/>
<feGaussianBlur stdDeviation="14.9366"/>
<feComposite in2="hardAlpha" operator="out"/>
<feColorMatrix type="matrix" values="0 0 0 0 0.00979167 0 0 0 0 0.117887 0 0 0 0 0.195833 0 0 0 1 0"/>
<feBlend mode="normal" in2="BackgroundImageFix" result="effect1_dropShadow_6254_673"/>
<feBlend mode="normal" in="SourceGraphic" in2="effect1_dropShadow_6254_673" result="shape"/>
</filter>
<filter id="filter2_d_6254_673" x="104.702" y="67.9264" width="306.669" height="106.548" filterUnits="userSpaceOnUse" color-interpolation-filters="sRGB">
<feFlood flood-opacity="0" result="BackgroundImageFix"/>
<feColorMatrix in="SourceAlpha" type="matrix" values="0 0 0 0 0 0 0 0 0 0 0 0 0 0 0 0 0 0 127 0" result="hardAlpha"/>
<feOffset dy="15.9323"/>
<feGaussianBlur stdDeviation="14.9366"/>
<feComposite in2="hardAlpha" operator="out"/>
<feColorMatrix type="matrix" values="0 0 0 0 0.00979167 0 0 0 0 0.117887 0 0 0 0 0.195833 0 0 0 1 0"/>
<feBlend mode="normal" in2="BackgroundImageFix" result="effect1_dropShadow_6254_673"/>
<feBlend mode="normal" in="SourceGraphic" in2="effect1_dropShadow_6254_673" result="shape"/>
</filter>
<filter id="filter3_d_6254_673" x="0.172752" y="138.683" width="357.626" height="106.548" filterUnits="userSpaceOnUse" color-interpolation-filters="sRGB">
<feFlood flood-opacity="0" result="BackgroundImageFix"/>
<feColorMatrix in="SourceAlpha" type="matrix" values="0 0 0 0 0 0 0 0 0 0 0 0 0 0 0 0 0 0 127 0" result="hardAlpha"/>
<feOffset dy="15.9323"/>
<feGaussianBlur stdDeviation="14.9366"/>
<feComposite in2="hardAlpha" operator="out"/>
<feColorMatrix type="matrix" values="0 0 0 0 0.00979167 0 0 0 0 0.117887 0 0 0 0 0.195833 0 0 0 1 0"/>
<feBlend mode="normal" in2="BackgroundImageFix" result="effect1_dropShadow_6254_673"/>
<feBlend mode="normal" in="SourceGraphic" in2="effect1_dropShadow_6254_673" result="shape"/>
</filter>
<filter id="filter4_d_6254_673" x="9.18447" y="222.108" width="355.37" height="106.548" filterUnits="userSpaceOnUse" color-interpolation-filters="sRGB">
<feFlood flood-opacity="0" result="BackgroundImageFix"/>
<feColorMatrix in="SourceAlpha" type="matrix" values="0 0 0 0 0 0 0 0 0 0 0 0 0 0 0 0 0 0 127 0" result="hardAlpha"/>
<feOffset dy="15.9323"/>
<feGaussianBlur stdDeviation="14.9366"/>
<feComposite in2="hardAlpha" operator="out"/>
<feColorMatrix type="matrix" values="0 0 0 0 0.00979167 0 0 0 0 0.117887 0 0 0 0 0.195833 0 0 0 1 0"/>
<feBlend mode="normal" in2="BackgroundImageFix" result="effect1_dropShadow_6254_673"/>
<feBlend mode="normal" in="SourceGraphic" in2="effect1_dropShadow_6254_673" result="shape"/>
</filter>
<filter id="filter5_d_6254_673" x="564.976" y="78.8043" width="348.836" height="106.548" filterUnits="userSpaceOnUse" color-interpolation-filters="sRGB">
<feFlood flood-opacity="0" result="BackgroundImageFix"/>
<feColorMatrix in="SourceAlpha" type="matrix" values="0 0 0 0 0 0 0 0 0 0 0 0 0 0 0 0 0 0 127 0" result="hardAlpha"/>
<feOffset dy="15.9323"/>
<feGaussianBlur stdDeviation="14.9366"/>
<feComposite in2="hardAlpha" operator="out"/>
<feColorMatrix type="matrix" values="0 0 0 0 0.00979167 0 0 0 0 0.117887 0 0 0 0 0.195833 0 0 0 1 0"/>
<feBlend mode="normal" in2="BackgroundImageFix" result="effect1_dropShadow_6254_673"/>
<feBlend mode="normal" in="SourceGraphic" in2="effect1_dropShadow_6254_673" result="shape"/>
</filter>
<filter id="filter6_d_6254_673" x="572.363" y="252.195" width="348.836" height="106.548" filterUnits="userSpaceOnUse" color-interpolation-filters="sRGB">
<feFlood flood-opacity="0" result="BackgroundImageFix"/>
<feColorMatrix in="SourceAlpha" type="matrix" values="0 0 0 0 0 0 0 0 0 0 0 0 0 0 0 0 0 0 127 0" result="hardAlpha"/>
<feOffset dy="15.9323"/>
<feGaussianBlur stdDeviation="14.9366"/>
<feComposite in2="hardAlpha" operator="out"/>
<feColorMatrix type="matrix" values="0 0 0 0 0.00979167 0 0 0 0 0.117887 0 0 0 0 0.195833 0 0 0 1 0"/>
<feBlend mode="normal" in2="BackgroundImageFix" result="effect1_dropShadow_6254_673"/>
<feBlend mode="normal" in="SourceGraphic" in2="effect1_dropShadow_6254_673" result="shape"/>
</filter>
<linearGradient id="paint0_linear_6254_673" x1="443.142" y1="99.8003" x2="443.142" y2="353.33" gradientUnits="userSpaceOnUse">
<stop stop-color="#E26A7E"/>
<stop offset="1" stop-color="#E9BCC3"/>
</linearGradient>
<linearGradient id="paint1_linear_6254_673" x1="351.429" y1="74.1108" x2="351.429" y2="353.33" gradientUnits="userSpaceOnUse">
<stop offset="0.111914" stop-color="white"/>
<stop offset="0.670316" stop-color="#D897A6"/>
</linearGradient>
<linearGradient id="paint2_linear_6254_673" x1="503.62" y1="106.837" x2="503.62" y2="353.33" gradientUnits="userSpaceOnUse">
<stop stop-color="#FF8094"/>
<stop offset="1" stop-color="#FFAFBC"/>
</linearGradient>
<linearGradient id="paint3_linear_6254_673" x1="666.348" y1="111.252" x2="482.668" y2="350.969" gradientUnits="userSpaceOnUse">
<stop offset="0.230872" stop-color="#FF92A2"/>
<stop offset="1" stop-color="#D897A6"/>
</linearGradient>
<linearGradient id="paint4_linear_6254_673" x1="538.697" y1="123.558" x2="538.697" y2="357.161" gradientUnits="userSpaceOnUse">
<stop stop-color="#FF5B76"/>
<stop offset="1" stop-color="#FACAD2"/>
</linearGradient>
<linearGradient id="paint5_linear_6254_673" x1="472.36" y1="353.33" x2="338.01" y2="79.2271" gradientUnits="userSpaceOnUse">
<stop stop-color="#FFDADA"/>
<stop offset="0.961538" stop-color="#FFA3B4"/>
</linearGradient>
<linearGradient id="paint6_linear_6254_673" x1="410.476" y1="401.821" x2="407.873" y2="203.63" gradientUnits="userSpaceOnUse">
<stop stop-color="white"/>
<stop offset="0.803412" stop-color="white"/>
</linearGradient>
<linearGradient id="paint7_linear_6254_673" x1="406.906" y1="328.821" x2="404.303" y2="130.63" gradientUnits="userSpaceOnUse">
<stop stop-color="white"/>
<stop offset="0.803412" stop-color="white"/>
</linearGradient>
<linearGradient id="paint8_linear_6254_673" x1="406.906" y1="328.821" x2="404.303" y2="130.63" gradientUnits="userSpaceOnUse">
<stop stop-color="white"/>
<stop offset="0.803412" stop-color="white"/>
</linearGradient>
<linearGradient id="paint9_linear_6254_673" x1="463.257" y1="308.821" x2="460.655" y2="110.63" gradientUnits="userSpaceOnUse">
<stop stop-color="white"/>
<stop offset="0.803412" stop-color="white"/>
</linearGradient>
<linearGradient id="paint10_linear_6254_673" x1="512.476" y1="312.877" x2="509.873" y2="114.686" gradientUnits="userSpaceOnUse">
<stop stop-color="white"/>
<stop offset="0.803412" stop-color="white"/>
</linearGradient>
<linearGradient id="paint11_linear_6254_673" x1="558.476" y1="315.056" x2="555.873" y2="116.865" gradientUnits="userSpaceOnUse">
<stop stop-color="white"/>
<stop offset="0.803412" stop-color="white"/>
</linearGradient>
<linearGradient id="paint12_linear_6254_673" x1="571.726" y1="385.986" x2="569.123" y2="187.795" gradientUnits="userSpaceOnUse">
<stop stop-color="white"/>
<stop offset="0.803412" stop-color="white"/>
</linearGradient>
<linearGradient id="paint13_linear_6254_673" x1="467.882" y1="-2.50638" x2="500.615" y2="104.552" gradientUnits="userSpaceOnUse">
<stop offset="0.303689" stop-color="#35A5D5"/>
<stop offset="0.89827" stop-color="white"/>
</linearGradient>
<linearGradient id="paint14_linear_6254_673" x1="408.134" y1="-71.8741" x2="419.824" y2="63.4534" gradientUnits="userSpaceOnUse">
<stop offset="0.580613" stop-color="#3DBDF1"/>
<stop offset="1" stop-color="#1A6F92" stop-opacity="0.35"/>
</linearGradient>
<linearGradient id="paint15_linear_6254_673" x1="283.955" y1="101.899" x2="326.723" y2="172.764" gradientUnits="userSpaceOnUse">
<stop offset="0.303689" stop-color="#35A5D5"/>
<stop offset="0.89827" stop-color="white"/>
</linearGradient>
<linearGradient id="paint16_linear_6254_673" x1="229.125" y1="-4.31548" x2="244.728" y2="130.212" gradientUnits="userSpaceOnUse">
<stop offset="0.580613" stop-color="#3DBDF1"/>
<stop offset="1" stop-color="#1A6F92" stop-opacity="0.35"/>
</linearGradient>
<linearGradient id="paint17_linear_6254_673" x1="199.442" y1="176.74" x2="266.409" y2="287.5" gradientUnits="userSpaceOnUse">
<stop offset="0.303689" stop-color="#35A5D5"/>
<stop offset="0.89827" stop-color="white"/>
</linearGradient>
<linearGradient id="paint18_linear_6254_673" x1="144.108" y1="66.4409" x2="157.096" y2="201.529" gradientUnits="userSpaceOnUse">
<stop offset="0.580613" stop-color="#3DBDF1"/>
<stop offset="1" stop-color="#1A6F92" stop-opacity="0.35"/>
</linearGradient>
<linearGradient id="paint19_linear_6254_673" x1="249.307" y1="242.35" x2="326.235" y2="323.682" gradientUnits="userSpaceOnUse">
<stop offset="0.303689" stop-color="#35A5D5"/>
<stop offset="0.89827" stop-color="white"/>
</linearGradient>
<linearGradient id="paint20_linear_6254_673" x1="152.255" y1="149.866" x2="165.341" y2="284.936" gradientUnits="userSpaceOnUse">
<stop offset="0.580613" stop-color="#3DBDF1"/>
<stop offset="1" stop-color="#1A6F92" stop-opacity="0.35"/>
</linearGradient>
<linearGradient id="paint21_linear_6254_673" x1="668.27" y1="79.475" x2="576.267" y2="143.257" gradientUnits="userSpaceOnUse">
<stop offset="0.303689" stop-color="#35A5D5"/>
<stop offset="0.89827" stop-color="white"/>
</linearGradient>
<linearGradient id="paint22_linear_6254_673" x1="705.545" y1="6.56245" x2="718.921" y2="141.575" gradientUnits="userSpaceOnUse">
<stop offset="0.580613" stop-color="#3DBDF1"/>
<stop offset="1" stop-color="#1A6F92" stop-opacity="0.35"/>
</linearGradient>
<linearGradient id="paint23_linear_6254_673" x1="664.526" y1="233.528" x2="555.063" y2="210.062" gradientUnits="userSpaceOnUse">
<stop offset="0.303689" stop-color="#35A5D5"/>
<stop offset="0.89827" stop-color="white"/>
</linearGradient>
<linearGradient id="paint24_linear_6254_673" x1="712.932" y1="179.954" x2="726.308" y2="314.966" gradientUnits="userSpaceOnUse">
<stop offset="0.580613" stop-color="#3DBDF1"/>
<stop offset="1" stop-color="#1A6F92" stop-opacity="0.35"/>
</linearGradient>
<clipPath id="clip0_6254_673">
<rect width="551.176" height="357.453" fill="white" transform="translate(161.193 49.0791)"/>
</clipPath>
</defs>
</svg>
