<svg width="163" height="158" viewBox="0 0 163 158" fill="none" xmlns="http://www.w3.org/2000/svg">
<g clip-path="url(#clip0_6502_123)">
<path d="M77.2622 0.938288C109.428 -1.91138 131.978 31.8835 116.108 60.3628C100.237 88.842 58.1377 86.8085 44.9427 57.1155C34.0045 32.4939 50.3491 3.32406 77.2622 0.938288ZM73.6696 21.7614H67.5657V27.691H72.1V53.3275C70.9909 54.3739 69.0132 53.6484 67.5657 53.8507V59.2571L68.0889 59.7803H74.1928V64.6634H78.7272V59.7803H82.2151V64.6634H86.7495V59.7803C91.8664 59.3408 96.0868 57.0178 97.3983 51.7684C98.7167 46.4981 97.196 42.2219 92.3302 39.721L95.2706 36.7388C99.062 29.4175 94.8172 22.48 86.903 21.4336L86.7495 16.5295H82.2117L82.1663 21.1929C81.8768 22.0719 79.0655 22.0719 78.776 21.1929L78.7307 16.5295H74.1928C74.0219 17.5131 74.6497 21.4615 73.6731 21.7649L73.6696 21.7614Z" fill="#1D1D1D" fill-opacity="0.05"/>
<path d="M77.2622 0.938288C109.428 -1.91138 131.978 31.8835 116.108 60.3628C100.237 88.842 58.1377 86.8085 44.9427 57.1155C34.0045 32.4939 50.3491 3.32406 77.2622 0.938288ZM73.6696 21.7614H67.5657V27.691H72.1V53.3275C70.9909 54.3739 69.0132 53.6484 67.5657 53.8507V59.2571L68.0889 59.7803H74.1928V64.6634H78.7272V59.7803H82.2151V64.6634H86.7495V59.7803C91.8664 59.3408 96.0868 57.0178 97.3983 51.7684C98.7167 46.4981 97.196 42.2219 92.3302 39.721L95.2706 36.7388C99.062 29.4175 94.8172 22.48 86.903 21.4336L86.7495 16.5295H82.2117L82.1663 21.1929C81.8768 22.0719 79.0655 22.0719 78.776 21.1929L78.7307 16.5295H74.1928C74.0219 17.5131 74.6497 21.4615 73.6731 21.7649L73.6696 21.7614Z" fill="url(#paint0_linear_6502_123)" fill-opacity="0.2"/>
<path d="M21.3087 129.058C6.24064 115.04 2.91312 93.7705 0.949399 73.9031C0.593627 70.286 -0.383004 63.5508 1.0366 60.3942C1.99928 58.2491 4.80011 56.0481 7.13356 55.6819C15.1245 54.4158 16.3592 62.5811 18.5706 68.1409C19.317 70.0209 21.5424 73.774 21.8109 75.3924C22.0167 76.6306 20.932 81.1929 21.1796 83.6694C21.8214 90.0942 30.6878 100.565 35.2954 105.131C35.8046 105.637 36.8266 106.603 37.4824 106.781C39.7565 107.395 41.6609 105.664 40.9041 103.359C40.353 101.681 34.2804 95.7621 32.6969 93.7775C29.2612 89.4768 24.9641 83.767 26.9417 77.9247C28.609 72.9997 35.1559 70.6034 38.9543 74.6111C41.2459 77.0283 43.6456 80.9243 45.9511 83.6589C54.1409 93.3833 62.7004 100.889 66.7708 113.415C70.7331 125.612 71.2912 137.224 71.3924 149.951C71.3993 150.889 71.8319 151.667 71.7412 152.682C71.4621 155.853 69.0659 156.498 66.3453 156.732C60.4367 157.238 49.9484 157.213 44.0153 156.749C34.556 156.013 41.8074 147.112 37.5207 141.967C35.6547 139.728 29.0136 135.657 26.2476 133.359C24.5978 131.988 22.8782 130.506 21.3121 129.048L21.3087 129.058Z" fill="#1D1D1D" fill-opacity="0.05"/>
<path d="M21.3087 129.058C6.24064 115.04 2.91312 93.7705 0.949399 73.9031C0.593627 70.286 -0.383004 63.5508 1.0366 60.3942C1.99928 58.2491 4.80011 56.0481 7.13356 55.6819C15.1245 54.4158 16.3592 62.5811 18.5706 68.1409C19.317 70.0209 21.5424 73.774 21.8109 75.3924C22.0167 76.6306 20.932 81.1929 21.1796 83.6694C21.8214 90.0942 30.6878 100.565 35.2954 105.131C35.8046 105.637 36.8266 106.603 37.4824 106.781C39.7565 107.395 41.6609 105.664 40.9041 103.359C40.353 101.681 34.2804 95.7621 32.6969 93.7775C29.2612 89.4768 24.9641 83.767 26.9417 77.9247C28.609 72.9997 35.1559 70.6034 38.9543 74.6111C41.2459 77.0283 43.6456 80.9243 45.9511 83.6589C54.1409 93.3833 62.7004 100.889 66.7708 113.415C70.7331 125.612 71.2912 137.224 71.3924 149.951C71.3993 150.889 71.8319 151.667 71.7412 152.682C71.4621 155.853 69.0659 156.498 66.3453 156.732C60.4367 157.238 49.9484 157.213 44.0153 156.749C34.556 156.013 41.8074 147.112 37.5207 141.967C35.6547 139.728 29.0136 135.657 26.2476 133.359C24.5978 131.988 22.8782 130.506 21.3121 129.048L21.3087 129.058Z" fill="url(#paint1_linear_6502_123)" fill-opacity="0.2"/>
<path d="M152.93 55.6819C158.88 54.7751 162.577 59.6547 162.452 65.2006C162.236 74.8693 159.906 87.9526 157.733 97.4538C153.289 116.892 148.891 123.097 133.652 135.459C131.712 137.032 125.825 140.656 124.764 142.267C121.782 146.795 126.909 155.741 119.724 156.411C113.704 156.972 100.938 156.986 94.9283 156.414C92.2774 156.163 91.1194 154.601 90.9102 152.041C91.4682 138.176 91.7333 124.747 96.5083 111.57C100.687 100.038 110.819 91.1894 118.479 81.9184C120.31 79.7001 123.463 74.1612 125.814 73.209C131.022 71.1022 136.278 76.0238 136.271 81.2278C136.261 89.3966 126.268 97.262 121.782 103.359C121.067 106.414 123.484 108.357 126.17 106.348C130.282 103.268 139.393 91.3778 140.83 86.4772C142.152 81.9603 141.046 80.2826 140.83 76.2958C140.753 74.8972 143.421 69.8919 144.116 68.1375C145.933 63.5438 147.098 56.5644 152.93 55.6785V55.6819Z" fill="#1D1D1D" fill-opacity="0.05"/>
<path d="M152.93 55.6819C158.88 54.7751 162.577 59.6547 162.452 65.2006C162.236 74.8693 159.906 87.9526 157.733 97.4538C153.289 116.892 148.891 123.097 133.652 135.459C131.712 137.032 125.825 140.656 124.764 142.267C121.782 146.795 126.909 155.741 119.724 156.411C113.704 156.972 100.938 156.986 94.9283 156.414C92.2774 156.163 91.1194 154.601 90.9102 152.041C91.4682 138.176 91.7333 124.747 96.5083 111.57C100.687 100.038 110.819 91.1894 118.479 81.9184C120.31 79.7001 123.463 74.1612 125.814 73.209C131.022 71.1022 136.278 76.0238 136.271 81.2278C136.261 89.3966 126.268 97.262 121.782 103.359C121.067 106.414 123.484 108.357 126.17 106.348C130.282 103.268 139.393 91.3778 140.83 86.4772C142.152 81.9603 141.046 80.2826 140.83 76.2958C140.753 74.8972 143.421 69.8919 144.116 68.1375C145.933 63.5438 147.098 56.5644 152.93 55.6785V55.6819Z" fill="url(#paint2_linear_6502_123)" fill-opacity="0.2"/>
<path d="M73.6699 21.7613C74.6501 21.4579 74.0187 17.5095 74.1896 16.5259H78.7275L78.7728 21.1893C79.0623 22.0683 81.8736 22.0683 82.1631 21.1893L82.2085 16.5259H86.7463L86.8998 21.43C94.814 22.4763 99.0623 29.4104 95.2674 36.7352L92.3271 39.7174C97.1893 42.2217 98.71 46.498 97.3951 51.7648C96.0836 57.0142 91.8597 59.3337 86.7463 59.7767V64.6598H82.212V59.7767H78.724V64.6598H74.1896V59.7767H68.0857L67.5625 59.2535V53.8471C69.01 53.6448 70.9877 54.3703 72.0969 53.3239V27.6874H67.5625V21.7578H73.6664L73.6699 21.7613ZM86.5754 27.6909C84.528 27.2793 81.2772 27.9943 79.0763 27.6909V37.4572H85.529C90.7784 37.4572 90.9179 28.5663 86.5754 27.6909ZM79.2507 43.0379L78.7275 43.5611V53.3274L79.2507 53.8506H84.4826C84.6431 53.8506 86.9103 53.4913 87.1963 53.4251C91.4934 52.3857 91.7899 45.1481 87.7055 43.6553C87.3811 43.5367 85.3616 43.0414 85.1802 43.0414H79.2507V43.0379Z" fill="white" fill-opacity="0.16"/>
<path d="M73.6699 21.7613C74.6501 21.4579 74.0187 17.5095 74.1896 16.5259H78.7275L78.7728 21.1893C79.0623 22.0683 81.8736 22.0683 82.1631 21.1893L82.2085 16.5259H86.7463L86.8998 21.43C94.814 22.4764 99.0623 29.4104 95.2674 36.7352L92.3271 39.7174C97.1893 42.2217 98.71 46.498 97.3951 51.7648C96.0836 57.0142 91.8597 59.3337 86.7463 59.7767V64.6598H82.212V59.7767H78.724V64.6598H74.1896V59.7767H68.0857L67.5625 59.2535V53.8471C69.01 53.6448 70.9877 54.3703 72.0969 53.3239V27.6874H67.5625V21.7578H73.6664L73.6699 21.7613ZM86.5754 27.6909C84.528 27.2793 81.2772 27.9943 79.0763 27.6909V37.4572H85.529C90.7784 37.4572 90.9179 28.5663 86.5754 27.6909ZM79.2507 43.0379L78.7275 43.5611V53.3274L79.2507 53.8506H84.4826C84.6431 53.8506 86.9103 53.4914 87.1963 53.4251C91.4934 52.3857 91.7899 45.1481 87.7055 43.6553C87.3811 43.5367 85.3616 43.0414 85.1802 43.0414H79.2507V43.0379Z" fill="white" fill-opacity="0.16"/>
<path d="M73.6699 21.7613C74.6501 21.4579 74.0187 17.5095 74.1896 16.5259H78.7275L78.7728 21.1893C79.0623 22.0683 81.8736 22.0683 82.1631 21.1893L82.2085 16.5259H86.7463L86.8998 21.43C94.814 22.4764 99.0623 29.4104 95.2674 36.7352L92.3271 39.7174C97.1893 42.2217 98.71 46.498 97.3951 51.7648C96.0836 57.0142 91.8597 59.3337 86.7463 59.7767V64.6598H82.212V59.7767H78.724V64.6598H74.1896V59.7767H68.0857L67.5625 59.2535V53.8471C69.01 53.6448 70.9877 54.3703 72.0969 53.3239V27.6874H67.5625V21.7578H73.6664L73.6699 21.7613ZM86.5754 27.6909C84.528 27.2793 81.2772 27.9943 79.0763 27.6909V37.4572H85.529C90.7784 37.4572 90.9179 28.5663 86.5754 27.6909ZM79.2507 43.0379L78.7275 43.5611V53.3274L79.2507 53.8506H84.4826C84.6431 53.8506 86.9103 53.4914 87.1963 53.4251C91.4934 52.3857 91.7899 45.1481 87.7055 43.6553C87.3811 43.5367 85.3616 43.0414 85.1802 43.0414H79.2507V43.0379Z" fill="white" fill-opacity="0.16"/>
<path d="M73.6699 21.7613C74.6501 21.4579 74.0187 17.5095 74.1896 16.5259H78.7275L78.7728 21.1893C79.0623 22.0683 81.8736 22.0683 82.1631 21.1893L82.2085 16.5259H86.7463L86.8998 21.43C94.814 22.4764 99.0623 29.4104 95.2674 36.7352L92.3271 39.7174C97.1893 42.2217 98.71 46.498 97.3951 51.7648C96.0836 57.0142 91.8597 59.3337 86.7463 59.7767V64.6598H82.212V59.7767H78.724V64.6598H74.1896V59.7767H68.0857L67.5625 59.2535V53.8471C69.01 53.6448 70.9877 54.3703 72.0969 53.3239V27.6874H67.5625V21.7578H73.6664L73.6699 21.7613ZM86.5754 27.6909C84.528 27.2793 81.2772 27.9943 79.0763 27.6909V37.4572H85.529C90.7784 37.4572 90.9179 28.5663 86.5754 27.6909ZM79.2507 43.0379L78.7275 43.5611V53.3274L79.2507 53.8506H84.4826C84.6431 53.8506 86.9103 53.4914 87.1963 53.4251C91.4934 52.3857 91.7899 45.1481 87.7055 43.6553C87.3811 43.5367 85.3616 43.0414 85.1802 43.0414H79.2507V43.0379Z" fill="white" fill-opacity="0.16"/>
<path d="M73.6699 21.7613C74.6501 21.4579 74.0187 17.5095 74.1896 16.5259H78.7275L78.7728 21.1893C79.0623 22.0683 81.8736 22.0683 82.1631 21.1893L82.2085 16.5259H86.7463L86.8998 21.43C94.814 22.4764 99.0623 29.4104 95.2674 36.7352L92.3271 39.7174C97.1893 42.2217 98.71 46.498 97.3951 51.7648C96.0836 57.0142 91.8597 59.3337 86.7463 59.7767V64.6598H82.212V59.7767H78.724V64.6598H74.1896V59.7767H68.0857L67.5625 59.2535V53.8471C69.01 53.6448 70.9877 54.3703 72.0969 53.3239V27.6874H67.5625V21.7578H73.6664L73.6699 21.7613ZM86.5754 27.6909C84.528 27.2793 81.2772 27.9943 79.0763 27.6909V37.4572H85.529C90.7784 37.4572 90.9179 28.5663 86.5754 27.6909ZM79.2507 43.0379L78.7275 43.5611V53.3274L79.2507 53.8506H84.4826C84.6431 53.8506 86.9103 53.4914 87.1963 53.4251C91.4934 52.3857 91.7899 45.1481 87.7055 43.6553C87.3811 43.5367 85.3616 43.0414 85.1802 43.0414H79.2507V43.0379Z" fill="white" fill-opacity="0.16"/>
<path d="M73.6699 21.7613C74.6501 21.4579 74.0187 17.5095 74.1896 16.5259H78.7275L78.7728 21.1893C79.0623 22.0683 81.8736 22.0683 82.1631 21.1893L82.2085 16.5259H86.7463L86.8998 21.43C94.814 22.4764 99.0623 29.4104 95.2674 36.7352L92.3271 39.7174C97.1893 42.2217 98.71 46.498 97.3951 51.7648C96.0836 57.0142 91.8597 59.3337 86.7463 59.7767V64.6598H82.212V59.7767H78.724V64.6598H74.1896V59.7767H68.0857L67.5625 59.2535V53.8471C69.01 53.6448 70.9877 54.3703 72.0969 53.3239V27.6874H67.5625V21.7578H73.6664L73.6699 21.7613ZM86.5754 27.6909C84.528 27.2793 81.2772 27.9943 79.0763 27.6909V37.4572H85.529C90.7784 37.4572 90.9179 28.5663 86.5754 27.6909ZM79.2507 43.0379L78.7275 43.5611V53.3274L79.2507 53.8506H84.4826C84.6431 53.8506 86.9103 53.4914 87.1963 53.4251C91.4934 52.3857 91.7899 45.1481 87.7055 43.6553C87.3811 43.5367 85.3616 43.0414 85.1802 43.0414H79.2507V43.0379Z" fill="white" fill-opacity="0.16"/>
<path d="M73.6699 21.7613C74.6501 21.4579 74.0187 17.5095 74.1896 16.5259H78.7275L78.7728 21.1893C79.0623 22.0683 81.8736 22.0683 82.1631 21.1893L82.2085 16.5259H86.7463L86.8998 21.43C94.814 22.4764 99.0623 29.4104 95.2674 36.7352L92.3271 39.7174C97.1893 42.2217 98.71 46.498 97.3951 51.7648C96.0836 57.0142 91.8597 59.3337 86.7463 59.7767V64.6598H82.212V59.7767H78.724V64.6598H74.1896V59.7767H68.0857L67.5625 59.2535V53.8471C69.01 53.6448 70.9877 54.3703 72.0969 53.3239V27.6874H67.5625V21.7578H73.6664L73.6699 21.7613ZM86.5754 27.6909C84.528 27.2793 81.2772 27.9943 79.0763 27.6909V37.4572H85.529C90.7784 37.4572 90.9179 28.5663 86.5754 27.6909ZM79.2507 43.0379L78.7275 43.5611V53.3274L79.2507 53.8506H84.4826C84.6431 53.8506 86.9103 53.4914 87.1963 53.4251C91.4934 52.3857 91.7899 45.1481 87.7055 43.6553C87.3811 43.5367 85.3616 43.0414 85.1802 43.0414H79.2507V43.0379Z" fill="white" fill-opacity="0.16"/>
<path d="M73.6699 21.7613C74.6501 21.4579 74.0187 17.5095 74.1896 16.5259H78.7275L78.7728 21.1893C79.0623 22.0683 81.8736 22.0683 82.1631 21.1893L82.2085 16.5259H86.7463L86.8998 21.43C94.814 22.4764 99.0623 29.4104 95.2674 36.7352L92.3271 39.7174C97.1893 42.2217 98.71 46.498 97.3951 51.7648C96.0836 57.0142 91.8597 59.3337 86.7463 59.7767V64.6598H82.212V59.7767H78.724V64.6598H74.1896V59.7767H68.0857L67.5625 59.2535V53.8471C69.01 53.6448 70.9877 54.3703 72.0969 53.3239V27.6874H67.5625V21.7578H73.6664L73.6699 21.7613ZM86.5754 27.6909C84.528 27.2793 81.2772 27.9943 79.0763 27.6909V37.4572H85.529C90.7784 37.4572 90.9179 28.5663 86.5754 27.6909ZM79.2507 43.0379L78.7275 43.5611V53.3274L79.2507 53.8506H84.4826C84.6431 53.8506 86.9103 53.4914 87.1963 53.4251C91.4934 52.3857 91.7899 45.1481 87.7055 43.6553C87.3811 43.5367 85.3616 43.0414 85.1802 43.0414H79.2507V43.0379Z" fill="white" fill-opacity="0.16"/>
<path d="M73.6699 21.7613C74.6501 21.4579 74.0187 17.5095 74.1896 16.5259H78.7275L78.7728 21.1893C79.0623 22.0683 81.8736 22.0683 82.1631 21.1893L82.2085 16.5259H86.7463L86.8998 21.43C94.814 22.4764 99.0623 29.4104 95.2674 36.7352L92.3271 39.7174C97.1893 42.2217 98.71 46.498 97.3951 51.7648C96.0836 57.0142 91.8597 59.3337 86.7463 59.7767V64.6598H82.212V59.7767H78.724V64.6598H74.1896V59.7767H68.0857L67.5625 59.2535V53.8471C69.01 53.6448 70.9877 54.3703 72.0969 53.3239V27.6874H67.5625V21.7578H73.6664L73.6699 21.7613ZM86.5754 27.6909C84.528 27.2793 81.2772 27.9943 79.0763 27.6909V37.4572H85.529C90.7784 37.4572 90.9179 28.5663 86.5754 27.6909ZM79.2507 43.0379L78.7275 43.5611V53.3274L79.2507 53.8506H84.4826C84.6431 53.8506 86.9103 53.4914 87.1963 53.4251C91.4934 52.3857 91.7899 45.1481 87.7055 43.6553C87.3811 43.5367 85.3616 43.0414 85.1802 43.0414H79.2507V43.0379Z" fill="white" fill-opacity="0.16"/>
<path d="M79.2507 43.0382H85.1803C85.3617 43.0382 87.3812 43.5334 87.7056 43.652C91.79 45.1449 91.4935 52.3859 87.1963 53.4218C86.9103 53.4916 84.6431 53.8474 84.4827 53.8474H79.2507L78.7275 53.3242V43.5579L79.2507 43.0347V43.0382Z" fill="#1D1D1D" fill-opacity="0.05"/>
<path d="M79.2507 43.0382H85.1803C85.3617 43.0382 87.3812 43.5334 87.7056 43.652C91.79 45.1449 91.4935 52.3859 87.1963 53.4218C86.9103 53.4916 84.6431 53.8474 84.4827 53.8474H79.2507L78.7275 53.3242V43.5579L79.2507 43.0347V43.0382Z" fill="url(#paint3_linear_6502_123)" fill-opacity="0.2"/>
<path d="M86.5753 27.6912C90.9178 28.5666 90.7783 37.4575 85.5289 37.4575H79.0762V27.6912C81.2771 27.9946 84.5279 27.2796 86.5753 27.6912Z" fill="#1D1D1D" fill-opacity="0.05"/>
<path d="M86.5753 27.6912C90.9178 28.5666 90.7783 37.4575 85.5289 37.4575H79.0762V27.6912C81.2771 27.9946 84.5279 27.2796 86.5753 27.6912Z" fill="url(#paint4_linear_6502_123)" fill-opacity="0.2"/>
<path d="M77.2622 0.938288C109.428 -1.91138 131.978 31.8835 116.108 60.3628C100.237 88.842 58.1377 86.8085 44.9427 57.1155C34.0045 32.4939 50.3491 3.32406 77.2622 0.938288ZM73.6696 21.7614H67.5657V27.691H72.1V53.3275C70.9909 54.3739 69.0132 53.6484 67.5657 53.8507V59.2571L68.0889 59.7803H74.1928V64.6634H78.7272V59.7803H82.2151V64.6634H86.7495V59.7803C91.8664 59.3408 96.0868 57.0178 97.3983 51.7684C98.7167 46.4981 97.196 42.2219 92.3302 39.721L95.2706 36.7388C99.062 29.4175 94.8172 22.48 86.903 21.4336L86.7495 16.5295H82.2117L82.1663 21.1929C81.8768 22.0719 79.0655 22.0719 78.776 21.1929L78.7307 16.5295H74.1928C74.0219 17.5131 74.6497 21.4615 73.6731 21.7649L73.6696 21.7614Z" fill="url(#paint5_linear_6502_123)"/>
<path d="M77.3066 1.43652C109.083 -1.3784 131.341 31.9993 115.671 60.1191C100.002 88.2364 58.4279 86.2305 45.3994 56.9121C34.5942 32.5894 50.7511 3.79059 77.3066 1.43652ZM73.7002 16.4443C73.6466 16.7536 73.6579 17.2445 73.6768 17.7393C73.6967 18.2632 73.7287 18.8431 73.7354 19.4082C73.742 19.9766 73.7227 20.4877 73.6514 20.8643C73.6155 21.0532 73.5718 21.1784 73.5312 21.252C73.5292 21.2556 73.5263 21.2585 73.5244 21.2617H67.0654V28.1914H71.5996V53.0918C71.2107 53.36 70.6746 53.4279 69.9756 53.4062C69.5738 53.3938 69.1921 53.3569 68.7578 53.332C68.3445 53.3084 67.9085 53.2978 67.4961 53.3555L67.0654 53.416V59.4639L67.8818 60.2803H73.6924V65.1631H79.2275V60.2803H81.7148V65.1631H87.249V60.2334C89.6915 59.9679 91.9495 59.2648 93.7861 57.9883C95.6235 56.7112 97.0153 54.8766 97.7461 52.3945L97.8838 51.8896C98.5612 49.1818 98.5207 46.682 97.6475 44.5186C96.8423 42.5238 95.3465 40.8618 93.1514 39.5996L95.627 37.0898L95.6797 37.0361L95.7148 36.9688C97.6791 33.1758 97.5805 29.4304 95.9111 26.4863C94.3033 23.6509 91.2746 21.6231 87.3887 21L87.249 16.5137L87.2344 16.0293H81.7168L81.7119 16.5244L81.667 21.0605C81.634 21.0936 81.5587 21.1549 81.3877 21.2158C81.1462 21.3017 80.8176 21.3525 80.4707 21.3525C80.124 21.3525 79.7961 21.3017 79.5547 21.2158C79.3828 21.1546 79.3071 21.0935 79.2744 21.0605L79.2305 16.5244L79.2256 16.0293H73.7725L73.7002 16.4443Z" stroke="white" stroke-opacity="0.16"/>
<path d="M21.3087 129.058C6.24064 115.04 2.91312 93.7705 0.949399 73.9031C0.593627 70.286 -0.383004 63.5508 1.0366 60.3942C1.99928 58.2491 4.80011 56.0481 7.13356 55.6819C15.1245 54.4158 16.3592 62.5811 18.5706 68.1409C19.317 70.0209 21.5424 73.774 21.8109 75.3924C22.0167 76.6306 20.932 81.1929 21.1796 83.6694C21.8214 90.0942 30.6878 100.565 35.2954 105.131C35.8046 105.637 36.8266 106.603 37.4824 106.781C39.7565 107.395 41.6609 105.664 40.9041 103.359C40.353 101.681 34.2804 95.7621 32.6969 93.7775C29.2612 89.4768 24.9641 83.767 26.9417 77.9247C28.609 72.9997 35.1559 70.6034 38.9543 74.6111C41.2459 77.0283 43.6456 80.9243 45.9511 83.6589C54.1409 93.3833 62.7004 100.889 66.7708 113.415C70.7331 125.612 71.2912 137.224 71.3924 149.951C71.3993 150.889 71.8319 151.667 71.7412 152.682C71.4621 155.853 69.0659 156.498 66.3453 156.732C60.4367 157.238 49.9483 157.213 44.0153 156.749C34.556 156.013 41.8074 147.112 37.5207 141.967C35.6547 139.728 29.0136 135.657 26.2476 133.359C24.5978 131.988 22.8782 130.506 21.3121 129.048L21.3087 129.058Z" fill="url(#paint6_linear_6502_123)"/>
<path d="M7.21191 56.1755C9.12069 55.8731 10.5837 56.1389 11.7471 56.7546C12.9169 57.3738 13.8311 58.3717 14.5938 59.613C15.3581 60.857 15.955 62.3205 16.5039 63.8406C17.0448 65.3385 17.5501 66.9285 18.1055 68.325C18.4889 69.2907 19.2504 70.7356 19.9219 72.0876C20.2624 72.7732 20.584 73.4415 20.8359 74.0359C21.0278 74.4885 21.1704 74.8789 21.2539 75.1902L21.3174 75.4744C21.3558 75.7056 21.3376 76.1552 21.2676 76.8064C21.1996 77.4384 21.0926 78.1914 20.9844 79.0007C20.7719 80.5905 20.5509 82.412 20.6816 83.7195C20.851 85.4146 21.5571 87.3372 22.5625 89.3171C23.5713 91.3038 24.899 93.3806 26.3447 95.3894C29.2355 99.406 32.6226 103.185 34.9434 105.485C35.202 105.742 35.5977 106.124 36.0176 106.467C36.4171 106.792 36.9103 107.144 37.3516 107.263H37.3525C38.6393 107.611 39.8713 107.304 40.6777 106.524C41.4925 105.736 41.812 104.522 41.3789 103.203C41.2871 102.924 41.0992 102.599 40.8721 102.265C40.6387 101.922 40.3395 101.534 39.999 101.117C39.3177 100.283 38.4495 99.3148 37.5557 98.3445C35.9757 96.6294 34.3348 94.9263 33.4287 93.8748L33.0879 93.4656L32.4365 92.6443C30.9046 90.6953 29.317 88.523 28.2422 86.2175C27.0172 83.5897 26.4822 80.8406 27.415 78.0847C28.1934 75.7857 30.1179 74.0663 32.2959 73.3962C34.463 72.7295 36.8428 73.1095 38.5918 74.9548C39.7117 76.1361 40.8662 77.6884 42.043 79.3093C43.2112 80.9185 44.4008 82.5963 45.5684 83.9812C53.8153 93.7736 62.2641 101.166 66.2949 113.569C70.2322 125.689 70.7915 137.236 70.8926 149.955C70.8966 150.49 71.0226 150.98 71.1152 151.396C71.2113 151.828 71.2811 152.212 71.2432 152.637V152.638C71.1165 154.077 70.5273 154.882 69.7012 155.38C68.8331 155.903 67.6547 156.117 66.3027 156.233C60.4239 156.736 49.9633 156.713 44.0547 156.251H44.0537C41.7634 156.072 40.6178 155.411 40.0215 154.564C39.4063 153.691 39.2811 152.497 39.3281 151.027C39.3515 150.297 39.4137 149.542 39.4639 148.743C39.5134 147.953 39.5503 147.133 39.5137 146.321C39.4403 144.694 39.0738 143.05 37.9053 141.647C37.4033 141.045 36.603 140.344 35.6709 139.608C34.7321 138.867 33.6319 138.071 32.5107 137.277C30.5348 135.879 28.5096 134.5 27.1211 133.419L26.5674 132.974C24.9219 131.607 23.2102 130.131 21.6533 128.681L21.084 128.152L21.083 128.154C6.6522 114.277 3.38732 93.482 1.44727 73.8542C1.26734 72.0251 0.937537 69.4664 0.827148 66.9539C0.71582 64.4198 0.83653 62.0575 1.49219 60.5994H1.49316C1.93164 59.6223 2.80943 58.5956 3.87793 57.7654C4.94681 56.935 6.1531 56.3416 7.21094 56.1755H7.21191Z" stroke="white" stroke-opacity="0.16"/>
<path d="M152.93 55.6819C158.88 54.7751 162.577 59.6547 162.452 65.2006C162.236 74.8693 159.906 87.9526 157.733 97.4538C153.289 116.892 148.891 123.097 133.652 135.459C131.712 137.032 125.825 140.656 124.764 142.267C121.782 146.795 126.909 155.741 119.724 156.411C113.704 156.972 100.938 156.986 94.9283 156.414C92.2774 156.163 91.1194 154.601 90.9102 152.041C91.4682 138.176 91.7333 124.747 96.5083 111.57C100.687 100.038 110.819 91.1894 118.479 81.9184C120.31 79.7001 123.463 74.1612 125.814 73.209C131.022 71.1022 136.278 76.0238 136.271 81.2278C136.261 89.3966 126.268 97.262 121.782 103.359C121.067 106.414 123.484 108.357 126.17 106.348C130.282 103.268 139.393 91.3778 140.83 86.4772C142.152 81.9603 141.046 80.2826 140.83 76.2958C140.753 74.8972 143.421 69.8919 144.116 68.1375C145.933 63.5438 147.098 56.5644 152.93 55.6785V55.6819Z" fill="url(#paint7_linear_6502_123)"/>
<path d="M153.005 56.1763C155.815 55.748 158.061 56.6825 159.601 58.3599C161.056 59.9446 161.902 62.2184 161.952 64.6919V65.189C161.737 74.8064 159.416 87.851 157.245 97.3423C155.028 107.042 152.833 113.386 149.32 118.839C145.806 124.295 140.949 128.896 133.337 135.071C132.384 135.844 130.462 137.118 128.59 138.44C127.664 139.094 126.758 139.755 126.014 140.356C125.376 140.871 124.818 141.374 124.479 141.81L124.347 141.993C123.525 143.24 123.281 144.76 123.229 146.276C123.203 147.038 123.225 147.816 123.254 148.574C123.283 149.338 123.318 150.077 123.32 150.788C123.326 152.223 123.195 153.427 122.69 154.306C122.213 155.138 121.352 155.757 119.678 155.913V155.914C114.062 156.437 102.518 156.481 96.1719 156.016L94.9756 155.917C93.7441 155.8 92.9237 155.388 92.3809 154.765C91.8341 154.138 91.5136 153.235 91.4111 152.029C91.9692 138.153 92.2388 124.82 96.9785 111.74C99.0387 106.055 102.574 101.012 106.572 96.2163C108.571 93.8192 110.68 91.4912 112.773 89.1763C114.603 87.1532 116.422 85.14 118.137 83.1089L118.864 82.2368C119.337 81.6639 119.89 80.8848 120.478 80.0415C121.07 79.1916 121.704 78.269 122.354 77.3853C123.005 76.5011 123.663 75.6697 124.296 75.0044C124.938 74.3294 125.516 73.8691 126.002 73.6724C128.404 72.7008 130.829 73.3381 132.681 74.8628C134.54 76.3941 135.775 78.7882 135.771 81.2271C135.766 85.1225 133.372 89.0114 130.317 92.7544C128.798 94.6161 127.139 96.4145 125.567 98.1411C124.002 99.8608 122.519 101.514 121.38 103.063L121.318 103.145L121.295 103.245C120.906 104.907 121.348 106.39 122.407 107.158C123.419 107.891 124.82 107.851 126.195 106.942L126.47 106.749C128.588 105.162 131.93 101.368 134.903 97.395C136.396 95.4002 137.809 93.3443 138.939 91.4751C139.994 89.7317 140.822 88.122 141.233 86.8647L141.31 86.6177C141.989 84.2961 142.048 82.6837 141.904 81.1411C141.834 80.3836 141.713 79.6386 141.602 78.8618C141.489 78.0793 141.382 77.2438 141.329 76.269V76.2681C141.324 76.1669 141.343 75.992 141.406 75.7339C141.467 75.4834 141.562 75.1844 141.684 74.8472C141.927 74.1726 142.269 73.3753 142.64 72.5562C143.368 70.9457 144.228 69.2113 144.58 68.3218C145.04 67.1603 145.462 65.8382 145.912 64.5415C146.366 63.232 146.855 61.928 147.462 60.7456C148.644 58.4423 150.235 56.6708 152.807 56.2056L153.005 56.1763Z" stroke="white" stroke-opacity="0.16"/>
<path d="M77.2622 0.938288C109.428 -1.91138 131.978 31.8835 116.108 60.3628C100.237 88.842 58.1377 86.8085 44.9427 57.1155C34.0045 32.4939 50.3491 3.32406 77.2622 0.938288ZM73.6696 21.7614H67.5657V27.691H72.1V53.3275C70.9909 54.3739 69.0132 53.6484 67.5657 53.8507V59.2571L68.0889 59.7803H74.1928V64.6634H78.7272V59.7803H82.2151V64.6634H86.7495V59.7803C91.8664 59.3408 96.0868 57.0178 97.3983 51.7684C98.7167 46.4981 97.196 42.2219 92.3302 39.721L95.2706 36.7388C99.062 29.4175 94.8172 22.48 86.903 21.4336L86.7495 16.5295H82.2117L82.1663 21.1929C81.8768 22.0719 79.0655 22.0719 78.776 21.1929L78.7307 16.5295H74.1928C74.0219 17.5131 74.6497 21.4615 73.6731 21.7649L73.6696 21.7614Z" fill="url(#paint8_linear_6502_123)"/>
<path d="M77.3066 1.43652C109.083 -1.3784 131.341 31.9993 115.671 60.1191C100.002 88.2364 58.4279 86.2305 45.3994 56.9121C34.5942 32.5894 50.7511 3.79059 77.3066 1.43652ZM73.7002 16.4443C73.6466 16.7536 73.6579 17.2445 73.6768 17.7393C73.6967 18.2632 73.7287 18.8431 73.7354 19.4082C73.742 19.9766 73.7227 20.4877 73.6514 20.8643C73.6155 21.0532 73.5718 21.1784 73.5312 21.252C73.5292 21.2556 73.5263 21.2585 73.5244 21.2617H67.0654V28.1914H71.5996V53.0918C71.2107 53.36 70.6746 53.4279 69.9756 53.4062C69.5738 53.3938 69.1921 53.3569 68.7578 53.332C68.3445 53.3084 67.9085 53.2978 67.4961 53.3555L67.0654 53.416V59.4639L67.8818 60.2803H73.6924V65.1631H79.2275V60.2803H81.7148V65.1631H87.249V60.2334C89.6915 59.9679 91.9495 59.2648 93.7861 57.9883C95.6235 56.7112 97.0153 54.8766 97.7461 52.3945L97.8838 51.8896C98.5612 49.1818 98.5207 46.682 97.6475 44.5186C96.8423 42.5238 95.3465 40.8618 93.1514 39.5996L95.627 37.0898L95.6797 37.0361L95.7148 36.9688C97.6791 33.1758 97.5805 29.4304 95.9111 26.4863C94.3033 23.6509 91.2746 21.6231 87.3887 21L87.249 16.5137L87.2344 16.0293H81.7168L81.7119 16.5244L81.667 21.0605C81.634 21.0936 81.5587 21.1549 81.3877 21.2158C81.1462 21.3017 80.8176 21.3525 80.4707 21.3525C80.124 21.3525 79.7961 21.3017 79.5547 21.2158C79.3828 21.1546 79.3071 21.0935 79.2744 21.0605L79.2305 16.5244L79.2256 16.0293H73.7725L73.7002 16.4443Z" stroke="white" stroke-opacity="0.16"/>
<path d="M21.3087 129.058C6.24064 115.04 2.91312 93.7705 0.949399 73.9031C0.593627 70.286 -0.383004 63.5508 1.0366 60.3942C1.99928 58.2491 4.80011 56.0481 7.13356 55.6819C15.1245 54.4158 16.3592 62.5811 18.5706 68.1409C19.317 70.0209 21.5424 73.774 21.8109 75.3924C22.0167 76.6306 20.932 81.1929 21.1796 83.6694C21.8214 90.0942 30.6878 100.565 35.2954 105.131C35.8046 105.637 36.8266 106.603 37.4824 106.781C39.7565 107.395 41.6609 105.664 40.9041 103.359C40.353 101.681 34.2804 95.7621 32.6969 93.7775C29.2612 89.4768 24.9641 83.767 26.9417 77.9247C28.609 72.9997 35.1559 70.6034 38.9543 74.6111C41.2459 77.0283 43.6456 80.9243 45.9511 83.6589C54.1409 93.3833 62.7004 100.889 66.7708 113.415C70.7331 125.612 71.2912 137.224 71.3924 149.951C71.3993 150.889 71.8319 151.667 71.7412 152.682C71.4621 155.853 69.0659 156.498 66.3453 156.732C60.4367 157.238 49.9483 157.213 44.0153 156.749C34.556 156.013 41.8074 147.112 37.5207 141.967C35.6547 139.728 29.0136 135.657 26.2476 133.359C24.5978 131.988 22.8782 130.506 21.3121 129.048L21.3087 129.058Z" fill="url(#paint9_linear_6502_123)"/>
<path d="M7.21191 56.1755C9.12069 55.8731 10.5837 56.1389 11.7471 56.7546C12.9169 57.3738 13.8311 58.3717 14.5938 59.613C15.3581 60.857 15.955 62.3205 16.5039 63.8406C17.0448 65.3385 17.5501 66.9285 18.1055 68.325C18.4889 69.2907 19.2504 70.7356 19.9219 72.0876C20.2624 72.7732 20.584 73.4415 20.8359 74.0359C21.0278 74.4885 21.1704 74.8789 21.2539 75.1902L21.3174 75.4744C21.3558 75.7056 21.3376 76.1552 21.2676 76.8064C21.1996 77.4384 21.0926 78.1914 20.9844 79.0007C20.7719 80.5905 20.5509 82.412 20.6816 83.7195C20.851 85.4146 21.5571 87.3372 22.5625 89.3171C23.5713 91.3038 24.899 93.3806 26.3447 95.3894C29.2355 99.406 32.6226 103.185 34.9434 105.485C35.202 105.742 35.5977 106.124 36.0176 106.467C36.4171 106.792 36.9103 107.144 37.3516 107.263H37.3525C38.6393 107.611 39.8713 107.304 40.6777 106.524C41.4925 105.736 41.812 104.522 41.3789 103.203C41.2871 102.924 41.0992 102.599 40.8721 102.265C40.6387 101.922 40.3395 101.534 39.999 101.117C39.3177 100.283 38.4495 99.3148 37.5557 98.3445C35.9757 96.6294 34.3348 94.9263 33.4287 93.8748L33.0879 93.4656L32.4365 92.6443C30.9046 90.6953 29.317 88.523 28.2422 86.2175C27.0172 83.5897 26.4822 80.8406 27.415 78.0847C28.1934 75.7857 30.1179 74.0663 32.2959 73.3962C34.463 72.7295 36.8428 73.1095 38.5918 74.9548C39.7117 76.1361 40.8662 77.6884 42.043 79.3093C43.2112 80.9185 44.4008 82.5963 45.5684 83.9812C53.8153 93.7736 62.2641 101.166 66.2949 113.569C70.2322 125.689 70.7915 137.236 70.8926 149.955C70.8966 150.49 71.0226 150.98 71.1152 151.396C71.2113 151.828 71.2811 152.212 71.2432 152.637V152.638C71.1165 154.077 70.5273 154.882 69.7012 155.38C68.8331 155.903 67.6547 156.117 66.3027 156.233C60.4239 156.736 49.9633 156.713 44.0547 156.251H44.0537C41.7634 156.072 40.6178 155.411 40.0215 154.564C39.4063 153.691 39.2811 152.497 39.3281 151.027C39.3515 150.297 39.4137 149.542 39.4639 148.743C39.5134 147.953 39.5503 147.133 39.5137 146.321C39.4403 144.694 39.0738 143.05 37.9053 141.647C37.4033 141.045 36.603 140.344 35.6709 139.608C34.7321 138.867 33.6319 138.071 32.5107 137.277C30.5348 135.879 28.5096 134.5 27.1211 133.419L26.5674 132.974C24.9219 131.607 23.2102 130.131 21.6533 128.681L21.084 128.152L21.083 128.154C6.6522 114.277 3.38732 93.482 1.44727 73.8542C1.26734 72.0251 0.937537 69.4664 0.827148 66.9539C0.71582 64.4198 0.83653 62.0575 1.49219 60.5994H1.49316C1.93164 59.6223 2.80943 58.5956 3.87793 57.7654C4.94681 56.935 6.1531 56.3416 7.21094 56.1755H7.21191Z" stroke="white" stroke-opacity="0.16"/>
<path d="M152.93 55.6819C158.88 54.7751 162.577 59.6547 162.452 65.2006C162.236 74.8693 159.906 87.9526 157.733 97.4538C153.289 116.892 148.891 123.097 133.652 135.459C131.712 137.032 125.825 140.656 124.764 142.267C121.782 146.795 126.909 155.741 119.724 156.411C113.704 156.972 100.938 156.986 94.9283 156.414C92.2774 156.163 91.1194 154.601 90.9102 152.041C91.4682 138.176 91.7333 124.747 96.5083 111.57C100.687 100.038 110.819 91.1894 118.479 81.9184C120.31 79.7001 123.463 74.1612 125.814 73.209C131.022 71.1022 136.278 76.0238 136.271 81.2278C136.261 89.3966 126.268 97.262 121.782 103.359C121.067 106.414 123.484 108.357 126.17 106.348C130.282 103.268 139.393 91.3778 140.83 86.4772C142.152 81.9603 141.046 80.2826 140.83 76.2958C140.753 74.8972 143.421 69.8919 144.116 68.1375C145.933 63.5438 147.098 56.5644 152.93 55.6785V55.6819Z" fill="url(#paint10_linear_6502_123)"/>
<path d="M153.005 56.1763C155.815 55.748 158.061 56.6825 159.601 58.3599C161.056 59.9446 161.902 62.2184 161.952 64.6919V65.189C161.737 74.8064 159.416 87.851 157.245 97.3423C155.028 107.042 152.833 113.386 149.32 118.839C145.806 124.295 140.949 128.896 133.337 135.071C132.384 135.844 130.462 137.118 128.59 138.44C127.664 139.094 126.758 139.755 126.014 140.356C125.376 140.871 124.818 141.374 124.479 141.81L124.347 141.993C123.525 143.24 123.281 144.76 123.229 146.276C123.203 147.038 123.225 147.816 123.254 148.574C123.283 149.338 123.318 150.077 123.32 150.788C123.326 152.223 123.195 153.427 122.69 154.306C122.213 155.138 121.352 155.757 119.678 155.913V155.914C114.062 156.437 102.518 156.481 96.1719 156.016L94.9756 155.917C93.7441 155.8 92.9237 155.388 92.3809 154.765C91.8341 154.138 91.5136 153.235 91.4111 152.029C91.9692 138.153 92.2388 124.82 96.9785 111.74C99.0387 106.055 102.574 101.012 106.572 96.2163C108.571 93.8192 110.68 91.4912 112.773 89.1763C114.603 87.1532 116.422 85.14 118.137 83.1089L118.864 82.2368C119.337 81.6639 119.89 80.8848 120.478 80.0415C121.07 79.1916 121.704 78.269 122.354 77.3853C123.005 76.5011 123.663 75.6697 124.296 75.0044C124.938 74.3294 125.516 73.8691 126.002 73.6724C128.404 72.7008 130.829 73.3381 132.681 74.8628C134.54 76.3941 135.775 78.7882 135.771 81.2271C135.766 85.1225 133.372 89.0114 130.317 92.7544C128.798 94.6161 127.139 96.4145 125.567 98.1411C124.002 99.8608 122.519 101.514 121.38 103.063L121.318 103.145L121.295 103.245C120.906 104.907 121.348 106.39 122.407 107.158C123.419 107.891 124.82 107.851 126.195 106.942L126.47 106.749C128.588 105.162 131.93 101.368 134.903 97.395C136.396 95.4002 137.809 93.3443 138.939 91.4751C139.994 89.7317 140.822 88.122 141.233 86.8647L141.31 86.6177C141.989 84.2961 142.048 82.6837 141.904 81.1411C141.834 80.3836 141.713 79.6386 141.602 78.8618C141.489 78.0793 141.382 77.2438 141.329 76.269V76.2681C141.324 76.1669 141.343 75.992 141.406 75.7339C141.467 75.4834 141.562 75.1844 141.684 74.8472C141.927 74.1726 142.269 73.3753 142.64 72.5562C143.368 70.9457 144.228 69.2113 144.58 68.3218C145.04 67.1603 145.462 65.8382 145.912 64.5415C146.366 63.232 146.855 61.928 147.462 60.7456C148.644 58.4423 150.235 56.6708 152.807 56.2056L153.005 56.1763Z" stroke="white" stroke-opacity="0.16"/>
<path d="M79.2507 43.0382H85.1803C85.3617 43.0382 87.3812 43.5334 87.7056 43.652C91.79 45.1449 91.4935 52.3859 87.1963 53.4218C86.9103 53.4916 84.6431 53.8474 84.4827 53.8474H79.2507L78.7275 53.3242V43.5579L79.2507 43.0347V43.0382Z" fill="url(#paint11_linear_6502_123)"/>
<path d="M85.1621 43.5386C85.1691 43.5397 85.1915 43.543 85.2354 43.5513C85.3013 43.5637 85.3906 43.5824 85.498 43.606C85.7128 43.6531 85.9887 43.7179 86.2705 43.7866C86.851 43.9283 87.4045 44.0742 87.5342 44.1216C89.299 44.7668 90.1892 46.6897 90.0947 48.6851C90.0002 50.6782 88.9358 52.4884 87.0791 52.936H87.0781C86.9611 52.9646 86.3504 53.0668 85.7148 53.1665C85.405 53.2151 85.1 53.2614 84.8633 53.2954C84.7449 53.3124 84.6451 53.3261 84.5713 53.3354C84.4802 53.347 84.4638 53.3472 84.4824 53.3472H79.458L79.2275 53.1167V43.7651L79.4541 43.5386H85.1621Z" stroke="white" stroke-opacity="0.16"/>
<path d="M86.5753 27.6912C90.9178 28.5666 90.7783 37.4575 85.5289 37.4575H79.0762V27.6912C81.2771 27.9946 84.5279 27.2796 86.5753 27.6912Z" fill="url(#paint12_linear_6502_123)"/>
<path d="M82.916 28.1497C84.1079 28.0704 85.2166 28.0082 86.1084 28.1213L86.4766 28.1809C87.3851 28.3641 88.0803 28.9668 88.542 29.8235C89.0068 30.686 89.2195 31.7843 89.1504 32.8713C89.0812 33.9587 88.7332 34.9912 88.1289 35.7405C87.5352 36.4764 86.6821 36.9572 85.5293 36.9573H79.5762V28.2405C80.6172 28.31 81.8022 28.2237 82.916 28.1497Z" stroke="white" stroke-opacity="0.16"/>
</g>
<defs>
<linearGradient id="paint0_linear_6502_123" x1="44.8302" y1="16.7354" x2="131.829" y2="28.8154" gradientUnits="userSpaceOnUse">
<stop stop-color="#66FECB"/>
<stop offset="1" stop-color="#8940FF"/>
</linearGradient>
<linearGradient id="paint1_linear_6502_123" x1="3.26769" y1="75.8613" x2="81.9204" y2="83.5485" gradientUnits="userSpaceOnUse">
<stop stop-color="#66FECB"/>
<stop offset="1" stop-color="#8940FF"/>
</linearGradient>
<linearGradient id="paint2_linear_6502_123" x1="93.8912" y1="75.8258" x2="172.627" y2="83.5519" gradientUnits="userSpaceOnUse">
<stop stop-color="#66FECB"/>
<stop offset="1" stop-color="#8940FF"/>
</linearGradient>
<linearGradient id="paint3_linear_6502_123" x1="79.2223" y1="45.1972" x2="92.1154" y2="47.1636" gradientUnits="userSpaceOnUse">
<stop stop-color="#66FECB"/>
<stop offset="1" stop-color="#8940FF"/>
</linearGradient>
<linearGradient id="paint4_linear_6502_123" x1="79.5173" y1="29.5393" x2="91.0262" y2="31.2491" gradientUnits="userSpaceOnUse">
<stop stop-color="#66FECB"/>
<stop offset="1" stop-color="#8940FF"/>
</linearGradient>
<linearGradient id="paint5_linear_6502_123" x1="72.0644" y1="-146.233" x2="175.614" y2="22.9345" gradientUnits="userSpaceOnUse">
<stop offset="0.580613" stop-color="#3DBDF1"/>
<stop offset="1" stop-color="#1A6F92" stop-opacity="0.35"/>
</linearGradient>
<linearGradient id="paint6_linear_6502_123" x1="27.6543" y1="-131.457" x2="174.141" y2="36.9928" gradientUnits="userSpaceOnUse">
<stop offset="0.580613" stop-color="#3DBDF1"/>
<stop offset="1" stop-color="#1A6F92" stop-opacity="0.35"/>
</linearGradient>
<linearGradient id="paint7_linear_6502_123" x1="118.305" y1="-130.903" x2="264.294" y2="37.6432" gradientUnits="userSpaceOnUse">
<stop offset="0.580613" stop-color="#3DBDF1"/>
<stop offset="1" stop-color="#1A6F92" stop-opacity="0.35"/>
</linearGradient>
<linearGradient id="paint8_linear_6502_123" x1="72.0644" y1="-146.233" x2="175.614" y2="22.9345" gradientUnits="userSpaceOnUse">
<stop offset="0.580613" stop-color="#3DBDF1"/>
<stop offset="1" stop-color="#1A6F92" stop-opacity="0.35"/>
</linearGradient>
<linearGradient id="paint9_linear_6502_123" x1="27.6543" y1="-131.457" x2="174.141" y2="36.9928" gradientUnits="userSpaceOnUse">
<stop offset="0.580613" stop-color="#3DBDF1"/>
<stop offset="1" stop-color="#1A6F92" stop-opacity="0.35"/>
</linearGradient>
<linearGradient id="paint10_linear_6502_123" x1="118.305" y1="-130.903" x2="264.294" y2="37.6432" gradientUnits="userSpaceOnUse">
<stop offset="0.580613" stop-color="#3DBDF1"/>
<stop offset="1" stop-color="#1A6F92" stop-opacity="0.35"/>
</linearGradient>
<linearGradient id="paint11_linear_6502_123" x1="83.2741" y1="23.1235" x2="96.6679" y2="47.1582" gradientUnits="userSpaceOnUse">
<stop offset="0.580613" stop-color="#3DBDF1"/>
<stop offset="1" stop-color="#1A6F92" stop-opacity="0.35"/>
</linearGradient>
<linearGradient id="paint12_linear_6502_123" x1="83.1299" y1="9.33364" x2="95.558" y2="31.0562" gradientUnits="userSpaceOnUse">
<stop offset="0.580613" stop-color="#3DBDF1"/>
<stop offset="1" stop-color="#1A6F92" stop-opacity="0.35"/>
</linearGradient>
<clipPath id="clip0_6502_123">
<rect width="162.166" height="156.341" fill="white" transform="translate(0.290039 0.770996)"/>
</clipPath>
</defs>
</svg>
