<svg width="158" height="161" viewBox="0 0 158 161" fill="none" xmlns="http://www.w3.org/2000/svg">
<g clip-path="url(#clip0_6611_61)">
<path d="M39.3526 34.0854C48.5198 34.0854 55.9513 26.6539 55.9513 17.4867C55.9513 8.31944 48.5198 0.887939 39.3526 0.887939C30.1854 0.887939 22.7539 8.31944 22.7539 17.4867C22.7539 26.6539 30.1854 34.0854 39.3526 34.0854Z" fill="#1D1D1D" fill-opacity="0.05"/>
<path d="M39.3526 34.0854C48.5198 34.0854 55.9513 26.6539 55.9513 17.4867C55.9513 8.31944 48.5198 0.887939 39.3526 0.887939C30.1854 0.887939 22.7539 8.31944 22.7539 17.4867C22.7539 26.6539 30.1854 34.0854 39.3526 34.0854Z" fill="url(#paint0_linear_6611_61)" fill-opacity="0.2"/>
<path d="M39.3525 1.12231C48.3902 1.12231 55.7168 8.44887 55.7168 17.4866C55.7168 26.5243 48.3903 33.8508 39.3525 33.8508C30.3148 33.8508 22.9883 26.5243 22.9883 17.4866C22.9883 8.4489 30.3149 1.12236 39.3525 1.12231Z" stroke="url(#paint1_linear_6611_61)" stroke-opacity="0.1" stroke-width="0.46889"/>
<path d="M19.2418 73.2048C19.2418 73.2048 19.2418 87.2293 19.2418 103.444C19.2418 118.654 19.3918 133.875 19.2418 149.081C19.2184 151.725 19.1386 154.351 19.6872 156.953C20.1092 158.951 21.1783 159.86 23.1523 159.978C32.7599 160.564 42.5503 159.978 52.1766 159.935C54.6758 159.926 57.5876 159.701 58.9709 157.624C59.8102 156.367 59.8336 154.754 59.8242 153.244C59.7445 133.659 59.7774 114.078 59.7774 94.4925C59.7774 83.919 59.7774 73.3502 59.7774 62.7767V62.1765C59.7774 57.1219 66.2199 59.6539 68.8316 60.4979C73.9144 62.1437 78.955 63.9067 83.9533 65.7917C89.158 67.7516 96.604 70.701 101.48 66.4341C103.145 64.9805 104.12 62.7673 104.064 60.5542C103.942 55.5183 99.7268 54.0225 95.8022 52.3205C92.8341 51.0357 89.8379 49.8166 86.8136 48.6678C78.458 45.4887 69.821 42.4691 60.973 41.0249C56.1013 40.2184 51.0841 40.0871 46.1608 40.1152C39.7839 40.1481 33.346 39.3838 26.955 40.2418C20.5125 41.1093 14.0043 43.6319 9.49825 48.4662C4.85155 53.4552 2.5071 60.0478 1.44741 66.6779C0.800339 70.7103 0.659672 74.7709 0.589338 78.8456C0.519005 82.878 0.157959 86.9949 1.44272 90.8867C3.04163 95.7256 6.36138 99.1345 10.5626 101.84C12.4804 103.078 14.5107 104.142 16.6019 105.066C16.7848 105.146 19.3121 106.022 19.3121 106.149L19.2324 73.1955L19.2418 73.2048Z" fill="#1D1D1D" fill-opacity="0.05"/>
<path d="M19.2418 73.2048C19.2418 73.2048 19.2418 87.2293 19.2418 103.444C19.2418 118.654 19.3918 133.875 19.2418 149.081C19.2184 151.725 19.1386 154.351 19.6872 156.953C20.1092 158.951 21.1783 159.86 23.1523 159.978C32.7599 160.564 42.5503 159.978 52.1766 159.935C54.6758 159.926 57.5876 159.701 58.9709 157.624C59.8102 156.367 59.8336 154.754 59.8242 153.244C59.7445 133.659 59.7774 114.078 59.7774 94.4925C59.7774 83.919 59.7774 73.3502 59.7774 62.7767V62.1765C59.7774 57.1219 66.2199 59.6539 68.8316 60.4979C73.9144 62.1437 78.955 63.9067 83.9533 65.7917C89.158 67.7516 96.604 70.701 101.48 66.4341C103.145 64.9805 104.12 62.7673 104.064 60.5542C103.942 55.5183 99.7268 54.0225 95.8022 52.3205C92.8341 51.0357 89.8379 49.8166 86.8136 48.6678C78.458 45.4887 69.821 42.4691 60.973 41.0249C56.1013 40.2184 51.0841 40.0871 46.1608 40.1152C39.7839 40.1481 33.346 39.3838 26.955 40.2418C20.5125 41.1093 14.0043 43.6319 9.49825 48.4662C4.85155 53.4552 2.5071 60.0478 1.44741 66.6779C0.800339 70.7103 0.659672 74.7709 0.589338 78.8456C0.519005 82.878 0.157959 86.9949 1.44272 90.8867C3.04163 95.7256 6.36138 99.1345 10.5626 101.84C12.4804 103.078 14.5107 104.142 16.6019 105.066C16.7848 105.146 19.3121 106.022 19.3121 106.149L19.2324 73.1955L19.2418 73.2048Z" fill="url(#paint2_linear_6611_61)" fill-opacity="0.2"/>
<path d="M26.9863 40.4746C30.1633 40.0481 33.3561 40.0239 36.5576 40.1035C39.3528 40.173 42.1657 40.3215 44.9639 40.3467L46.1621 40.3496C51.0818 40.3215 56.0829 40.4527 60.9346 41.2559H60.9355C69.7584 42.696 78.3767 45.7084 86.7305 48.8867C88.9962 49.7473 91.2463 50.6472 93.4805 51.585L95.709 52.5352C97.6863 53.3927 99.6849 54.1791 101.215 55.3721C102.727 56.5515 103.771 58.122 103.83 60.5596V60.5605C103.881 62.5697 103.053 64.5818 101.621 65.9854L101.326 66.2578C98.9606 68.3277 95.9608 68.6599 92.873 68.2158C89.782 67.7712 86.6451 66.5547 84.0361 65.5723C79.0343 63.686 73.9904 61.9213 68.9043 60.2744H68.9033C67.6166 59.8586 65.3137 59.0004 63.3379 58.8916C62.3487 58.8371 61.3972 58.9668 60.6885 59.4727C59.9656 59.9888 59.543 60.8605 59.543 62.1768V94.4922C59.543 114.077 59.5101 133.659 59.5898 153.245C59.5993 154.767 59.5692 156.306 58.7764 157.493L58.7754 157.494C58.1267 158.468 57.1131 159.02 55.9326 159.328C54.7498 159.637 53.4222 159.696 52.1758 159.701C42.5313 159.743 32.7649 160.33 23.167 159.744L23.166 159.743C22.2115 159.686 21.5065 159.44 20.9912 158.993C20.4758 158.546 20.1214 157.873 19.917 156.905C19.3748 154.334 19.453 151.737 19.4766 149.083C19.6177 134.777 19.4947 120.457 19.4795 106.149H19.5469V106.148L19.4766 77.0244V73.1074L19.4072 73.0391L19.3984 73.0293L18.9971 72.6279L18.998 73.1963L19.0078 77.0244V103.443C19.0078 104.203 19.0091 104.964 19.0098 105.724C19.0084 105.723 19.0072 105.722 19.0059 105.722C18.7614 105.618 18.4353 105.493 18.1074 105.37C17.779 105.247 17.4451 105.126 17.1826 105.03C16.9131 104.932 16.7321 104.867 16.6953 104.851H16.6943C14.6134 103.931 12.5947 102.872 10.6895 101.643C6.51696 98.9556 3.24187 95.5854 1.66504 90.8135C0.396233 86.97 0.753446 82.9072 0.824219 78.8496C0.894533 74.7761 1.03448 70.7296 1.67871 66.7148C2.70132 60.3168 4.92201 53.9772 9.24512 49.0938L9.66992 48.626C14.1274 43.8439 20.5778 41.3375 26.9863 40.4746Z" stroke="url(#paint3_linear_6611_61)" stroke-opacity="0.1" stroke-width="0.46889"/>
<path d="M137.837 18.8416C135.765 4.87809 123.874 3.19946 119.565 3.19946C115.256 3.19946 110.984 4.70929 107.932 7.72894C102.305 13.2947 100.809 23.1742 104.963 29.8887C106.403 32.2097 108.138 34.3619 110.299 36.0218C110.515 36.1906 113.178 37.6863 113.178 37.8364L113.099 41.5875L118.444 46.6187L114.215 52.0438L118.524 58.1112L113.976 62.8986L114.055 66.0917L123.316 71.5965L126.903 65.9323V37.8364C126.903 37.8364 139.915 32.8099 137.837 18.8416ZM120.193 20.5062C117.286 20.5062 114.927 18.1477 114.927 15.2406C114.927 12.3334 117.286 9.97493 120.193 9.97493C123.1 9.97493 125.459 12.3334 125.459 15.2406C125.459 18.1477 123.105 20.5062 120.193 20.5062Z" fill="#1D1D1D" fill-opacity="0.05"/>
<path d="M137.837 18.8416C135.765 4.87809 123.874 3.19946 119.565 3.19946C115.256 3.19946 110.984 4.70929 107.932 7.72894C102.305 13.2947 100.809 23.1742 104.963 29.8887C106.403 32.2097 108.138 34.3619 110.299 36.0218C110.515 36.1906 113.178 37.6863 113.178 37.8364L113.099 41.5875L118.444 46.6187L114.215 52.0438L118.524 58.1112L113.976 62.8986L114.055 66.0917L123.316 71.5965L126.903 65.9323V37.8364C126.903 37.8364 139.915 32.8099 137.837 18.8416ZM120.193 20.5062C117.286 20.5062 114.927 18.1477 114.927 15.2406C114.927 12.3334 117.286 9.97493 120.193 9.97493C123.1 9.97493 125.459 12.3334 125.459 15.2406C125.459 18.1477 123.105 20.5062 120.193 20.5062Z" fill="url(#paint4_linear_6611_61)" fill-opacity="0.2"/>
<path d="M119.564 3.43384C121.696 3.43384 125.701 3.85015 129.423 5.98755C133.018 8.05188 136.364 11.7294 137.502 18.2375L137.605 18.8762C138.631 25.7716 135.936 30.4493 132.983 33.4114C131.505 34.8946 129.961 35.948 128.786 36.6301C128.199 36.971 127.705 37.2189 127.358 37.3811C127.185 37.4621 127.049 37.5216 126.957 37.5608C126.911 37.5802 126.876 37.5943 126.853 37.6038C126.841 37.6084 126.832 37.6123 126.826 37.6145C126.824 37.6155 126.822 37.6169 126.82 37.6174H126.818L126.668 37.676V65.8655L123.239 71.2776L114.286 65.9563L114.212 62.9885L118.693 58.2727L118.826 58.1331L118.715 57.9758L114.506 52.0491L118.629 46.7629L118.761 46.594L118.604 46.4475L113.335 41.4875L113.413 37.8411V37.8362C113.413 37.7568 113.374 37.7008 113.363 37.6848C113.347 37.6608 113.327 37.6407 113.312 37.6262C113.282 37.5966 113.244 37.5653 113.205 37.5354C113.125 37.4745 113.014 37.3993 112.887 37.3167C112.63 37.1502 112.287 36.9416 111.94 36.7346C111.594 36.5277 111.238 36.3189 110.96 36.1536C110.82 36.0705 110.699 35.999 110.607 35.9426L110.444 35.8372L110.442 35.8362L110.047 35.5227C108.096 33.9313 106.503 31.9261 105.163 29.7649C101.071 23.15 102.542 13.3903 108.097 7.89575C111.099 4.92585 115.308 3.4339 119.564 3.43384ZM120.193 9.74048C117.157 9.74048 114.693 12.2039 114.693 15.2405C114.693 18.2771 117.157 20.7405 120.193 20.7405C123.235 20.7403 125.693 18.2768 125.693 15.2405C125.693 12.204 123.23 9.74066 120.193 9.74048Z" stroke="url(#paint5_linear_6611_61)" stroke-opacity="0.1" stroke-width="0.46889"/>
<path d="M150.995 83.0938H79.3536C75.5987 83.0938 72.5547 86.1377 72.5547 89.8927V153.441C72.5547 157.196 75.5987 160.24 79.3536 160.24H150.995C154.75 160.24 157.794 157.196 157.794 153.441V89.8927C157.794 86.1377 154.75 83.0938 150.995 83.0938Z" fill="#1D1D1D" fill-opacity="0.05"/>
<path d="M150.995 83.0938H79.3536C75.5987 83.0938 72.5547 86.1377 72.5547 89.8927V153.441C72.5547 157.196 75.5987 160.24 79.3536 160.24H150.995C154.75 160.24 157.794 157.196 157.794 153.441V89.8927C157.794 86.1377 154.75 83.0938 150.995 83.0938Z" fill="url(#paint6_linear_6611_61)" fill-opacity="0.2"/>
<path d="M79.3535 83.3281H150.995C154.621 83.3281 157.56 86.2672 157.56 89.8926V153.441C157.56 157.067 154.621 160.006 150.995 160.006H79.3535C75.7281 160.006 72.7891 157.067 72.7891 153.441V89.8926C72.7891 86.2672 75.7281 83.3282 79.3535 83.3281Z" stroke="url(#paint7_linear_6611_61)" stroke-opacity="0.1" stroke-width="0.46889"/>
<path d="M39.3526 34.0854C48.5198 34.0854 55.9513 26.6539 55.9513 17.4867C55.9513 8.31944 48.5198 0.887939 39.3526 0.887939C30.1854 0.887939 22.7539 8.31944 22.7539 17.4867C22.7539 26.6539 30.1854 34.0854 39.3526 34.0854Z" fill="url(#paint8_linear_6611_61)"/>
<path d="M39.3525 1.12231C48.3902 1.12231 55.7168 8.44887 55.7168 17.4866C55.7168 26.5243 48.3903 33.8508 39.3525 33.8508C30.3148 33.8508 22.9883 26.5243 22.9883 17.4866C22.9883 8.4489 30.3149 1.12236 39.3525 1.12231Z" stroke="url(#paint9_linear_6611_61)" stroke-opacity="0.1" stroke-width="0.46889"/>
<path d="M19.2418 73.2048C19.2418 73.2048 19.2418 87.2293 19.2418 103.444C19.2418 118.654 19.3918 133.875 19.2418 149.081C19.2184 151.725 19.1386 154.351 19.6872 156.953C20.1092 158.951 21.1783 159.86 23.1523 159.978C32.7599 160.564 42.5503 159.978 52.1766 159.935C54.6758 159.926 57.5876 159.701 58.9709 157.624C59.8102 156.367 59.8336 154.754 59.8242 153.244C59.7445 133.659 59.7774 114.078 59.7774 94.4925C59.7774 83.919 59.7774 73.3502 59.7774 62.7767V62.1765C59.7774 57.1219 66.2199 59.6539 68.8316 60.4979C73.9144 62.1437 78.955 63.9067 83.9533 65.7917C89.158 67.7516 96.604 70.701 101.48 66.4341C103.145 64.9805 104.12 62.7673 104.064 60.5542C103.942 55.5183 99.7268 54.0225 95.8022 52.3205C92.8341 51.0357 89.8379 49.8166 86.8136 48.6678C78.458 45.4887 69.821 42.4691 60.973 41.0249C56.1013 40.2184 51.0841 40.0871 46.1608 40.1152C39.7839 40.1481 33.346 39.3838 26.955 40.2418C20.5125 41.1093 14.0043 43.6319 9.49825 48.4662C4.85155 53.4552 2.5071 60.0478 1.44741 66.6779C0.800339 70.7103 0.659672 74.7709 0.589338 78.8456C0.519005 82.878 0.157959 86.9949 1.44272 90.8867C3.04163 95.7256 6.36138 99.1345 10.5626 101.84C12.4804 103.078 14.5107 104.142 16.6019 105.066C16.7848 105.146 19.3121 106.022 19.3121 106.149L19.2324 73.1955L19.2418 73.2048Z" fill="url(#paint10_linear_6611_61)"/>
<path d="M26.9863 40.4746C30.1633 40.0481 33.3561 40.0239 36.5576 40.1035C39.3528 40.173 42.1657 40.3215 44.9639 40.3467L46.1621 40.3496C51.0818 40.3215 56.0829 40.4527 60.9346 41.2559H60.9355C69.7584 42.696 78.3767 45.7084 86.7305 48.8867C88.9962 49.7473 91.2463 50.6472 93.4805 51.585L95.709 52.5352C97.6863 53.3927 99.6849 54.1791 101.215 55.3721C102.727 56.5515 103.771 58.122 103.83 60.5596V60.5605C103.881 62.5697 103.053 64.5818 101.621 65.9854L101.326 66.2578C98.9606 68.3277 95.9608 68.6599 92.873 68.2158C89.782 67.7712 86.6451 66.5547 84.0361 65.5723C79.0343 63.686 73.9904 61.9213 68.9043 60.2744H68.9033C67.6166 59.8586 65.3137 59.0004 63.3379 58.8916C62.3487 58.8371 61.3972 58.9668 60.6885 59.4727C59.9656 59.9888 59.543 60.8605 59.543 62.1768V94.4922C59.543 114.077 59.5101 133.659 59.5898 153.245C59.5993 154.767 59.5692 156.306 58.7764 157.493L58.7754 157.494C58.1267 158.468 57.1131 159.02 55.9326 159.328C54.7498 159.637 53.4222 159.696 52.1758 159.701C42.5313 159.743 32.7649 160.33 23.167 159.744L23.166 159.743C22.2115 159.686 21.5065 159.44 20.9912 158.993C20.4758 158.546 20.1214 157.873 19.917 156.905C19.3748 154.334 19.453 151.737 19.4766 149.083C19.6177 134.777 19.4947 120.457 19.4795 106.149H19.5469V106.148L19.4766 77.0244V73.1074L19.4072 73.0391L19.3984 73.0293L18.9971 72.6279L18.998 73.1963L19.0078 77.0244V103.443C19.0078 104.203 19.0091 104.964 19.0098 105.724C19.0084 105.723 19.0072 105.722 19.0059 105.722C18.7614 105.618 18.4353 105.493 18.1074 105.37C17.779 105.247 17.4451 105.126 17.1826 105.03C16.9131 104.932 16.7321 104.867 16.6953 104.851H16.6943C14.6134 103.931 12.5947 102.872 10.6895 101.643C6.51696 98.9556 3.24187 95.5854 1.66504 90.8135C0.396233 86.97 0.753446 82.9072 0.824219 78.8496C0.894533 74.7761 1.03448 70.7296 1.67871 66.7148C2.70132 60.3168 4.92201 53.9772 9.24512 49.0938L9.66992 48.626C14.1274 43.8439 20.5778 41.3375 26.9863 40.4746Z" stroke="url(#paint11_linear_6611_61)" stroke-opacity="0.1" stroke-width="0.46889"/>
<path d="M137.837 18.8416C135.765 4.87809 123.874 3.19946 119.565 3.19946C115.256 3.19946 110.984 4.70929 107.932 7.72894C102.305 13.2947 100.809 23.1742 104.963 29.8887C106.403 32.2097 108.138 34.3619 110.299 36.0218C110.515 36.1906 113.178 37.6863 113.178 37.8364L113.099 41.5875L118.444 46.6187L114.215 52.0438L118.524 58.1112L113.976 62.8986L114.055 66.0917L123.316 71.5965L126.903 65.9323V37.8364C126.903 37.8364 139.915 32.8099 137.837 18.8416ZM120.193 20.5062C117.286 20.5062 114.927 18.1477 114.927 15.2406C114.927 12.3334 117.286 9.97493 120.193 9.97493C123.1 9.97493 125.459 12.3334 125.459 15.2406C125.459 18.1477 123.105 20.5062 120.193 20.5062Z" fill="url(#paint12_linear_6611_61)"/>
<path d="M119.564 3.43384C121.696 3.43384 125.701 3.85015 129.423 5.98755C133.018 8.05188 136.364 11.7294 137.502 18.2375L137.605 18.8762C138.631 25.7716 135.936 30.4493 132.983 33.4114C131.505 34.8946 129.961 35.948 128.786 36.6301C128.199 36.971 127.705 37.2189 127.358 37.3811C127.185 37.4621 127.049 37.5216 126.957 37.5608C126.911 37.5802 126.876 37.5943 126.853 37.6038C126.841 37.6084 126.832 37.6123 126.826 37.6145C126.824 37.6155 126.822 37.6169 126.82 37.6174H126.818L126.668 37.676V65.8655L123.239 71.2776L114.286 65.9563L114.212 62.9885L118.693 58.2727L118.826 58.1331L118.715 57.9758L114.506 52.0491L118.629 46.7629L118.761 46.594L118.604 46.4475L113.335 41.4875L113.413 37.8411V37.8362C113.413 37.7568 113.374 37.7008 113.363 37.6848C113.347 37.6608 113.327 37.6407 113.312 37.6262C113.282 37.5966 113.244 37.5653 113.205 37.5354C113.125 37.4745 113.014 37.3993 112.887 37.3167C112.63 37.1502 112.287 36.9416 111.94 36.7346C111.594 36.5277 111.238 36.3189 110.96 36.1536C110.82 36.0705 110.699 35.999 110.607 35.9426L110.444 35.8372L110.442 35.8362L110.047 35.5227C108.096 33.9313 106.503 31.9261 105.163 29.7649C101.071 23.15 102.542 13.3903 108.097 7.89575C111.099 4.92585 115.308 3.4339 119.564 3.43384ZM120.193 9.74048C117.157 9.74048 114.693 12.2039 114.693 15.2405C114.693 18.2771 117.157 20.7405 120.193 20.7405C123.235 20.7403 125.693 18.2768 125.693 15.2405C125.693 12.204 123.23 9.74066 120.193 9.74048Z" stroke="url(#paint13_linear_6611_61)" stroke-opacity="0.1" stroke-width="0.46889"/>
<path d="M150.995 83.0938H79.3536C75.5987 83.0938 72.5547 86.1377 72.5547 89.8927V153.441C72.5547 157.196 75.5987 160.24 79.3536 160.24H150.995C154.75 160.24 157.794 157.196 157.794 153.441V89.8927C157.794 86.1377 154.75 83.0938 150.995 83.0938Z" fill="url(#paint14_linear_6611_61)"/>
<path d="M79.3535 83.3281H150.995C154.621 83.3281 157.56 86.2672 157.56 89.8926V153.441C157.56 157.067 154.621 160.006 150.995 160.006H79.3535C75.7281 160.006 72.7891 157.067 72.7891 153.441V89.8926C72.7891 86.2672 75.7281 83.3282 79.3535 83.3281Z" stroke="url(#paint15_linear_6611_61)" stroke-opacity="0.1" stroke-width="0.46889"/>
<path d="M140.342 92.073H87.5968C84.769 92.073 82.4766 94.3654 82.4766 97.1933V146.145C82.4766 148.973 84.769 151.266 87.5968 151.266H140.342C143.17 151.266 145.463 148.973 145.463 146.145V97.1933C145.463 94.3654 143.17 92.073 140.342 92.073Z" fill="white" fill-opacity="0.16"/>
<path d="M145.842 101.413H145.082C142.972 101.413 141.261 103.124 141.261 105.235V113.272C141.261 115.382 142.972 117.093 145.082 117.093H145.842C147.952 117.093 149.663 115.382 149.663 113.272V105.235C149.663 103.124 147.952 101.413 145.842 101.413Z" fill="white" fill-opacity="0.16"/>
<path d="M145.842 126.672H145.082C142.972 126.672 141.261 128.383 141.261 130.494V138.531C141.261 140.641 142.972 142.352 145.082 142.352H145.842C147.952 142.352 149.663 140.641 149.663 138.531V130.494C149.663 128.383 147.952 126.672 145.842 126.672Z" fill="white" fill-opacity="0.16"/>
<path d="M114.454 133.373C121.065 133.373 126.425 128.013 126.425 121.402C126.425 114.791 121.065 109.431 114.454 109.431C107.843 109.431 102.483 114.791 102.483 121.402C102.483 128.013 107.843 133.373 114.454 133.373Z" fill="white" fill-opacity="0.16"/>
</g>
<g clip-path="url(#clip1_6611_61)">
<path d="M39.3526 34.0854C48.5198 34.0854 55.9513 26.6539 55.9513 17.4867C55.9513 8.31944 48.5198 0.887939 39.3526 0.887939C30.1854 0.887939 22.7539 8.31944 22.7539 17.4867C22.7539 26.6539 30.1854 34.0854 39.3526 34.0854Z" fill="#1D1D1D" fill-opacity="0.05"/>
<path d="M39.3526 34.0854C48.5198 34.0854 55.9513 26.6539 55.9513 17.4867C55.9513 8.31944 48.5198 0.887939 39.3526 0.887939C30.1854 0.887939 22.7539 8.31944 22.7539 17.4867C22.7539 26.6539 30.1854 34.0854 39.3526 34.0854Z" fill="url(#paint16_linear_6611_61)" fill-opacity="0.2"/>
<path d="M39.3525 1.12231C48.3902 1.12231 55.7168 8.44887 55.7168 17.4866C55.7168 26.5243 48.3903 33.8508 39.3525 33.8508C30.3148 33.8508 22.9883 26.5243 22.9883 17.4866C22.9883 8.4489 30.3149 1.12236 39.3525 1.12231Z" stroke="url(#paint17_linear_6611_61)" stroke-opacity="0.1" stroke-width="0.46889"/>
<path d="M19.2418 73.2048C19.2418 73.2048 19.2418 87.2293 19.2418 103.444C19.2418 118.654 19.3918 133.875 19.2418 149.081C19.2184 151.725 19.1386 154.351 19.6872 156.953C20.1092 158.951 21.1783 159.86 23.1523 159.978C32.7599 160.564 42.5503 159.978 52.1766 159.935C54.6758 159.926 57.5876 159.701 58.9709 157.624C59.8102 156.367 59.8336 154.754 59.8242 153.244C59.7445 133.659 59.7774 114.078 59.7774 94.4925C59.7774 83.919 59.7774 73.3502 59.7774 62.7767V62.1765C59.7774 57.1219 66.2199 59.6539 68.8316 60.4979C73.9144 62.1437 78.955 63.9067 83.9533 65.7917C89.158 67.7516 96.604 70.701 101.48 66.4341C103.145 64.9805 104.12 62.7673 104.064 60.5542C103.942 55.5183 99.7268 54.0225 95.8022 52.3205C92.8341 51.0357 89.8379 49.8166 86.8136 48.6678C78.458 45.4887 69.821 42.4691 60.973 41.0249C56.1013 40.2184 51.0841 40.0871 46.1608 40.1152C39.7839 40.1481 33.346 39.3838 26.955 40.2418C20.5125 41.1093 14.0043 43.6319 9.49825 48.4662C4.85155 53.4552 2.5071 60.0478 1.44741 66.6779C0.800339 70.7103 0.659672 74.7709 0.589338 78.8456C0.519005 82.878 0.157959 86.9949 1.44272 90.8867C3.04163 95.7256 6.36138 99.1345 10.5626 101.84C12.4804 103.078 14.5107 104.142 16.6019 105.066C16.7848 105.146 19.3121 106.022 19.3121 106.149L19.2324 73.1955L19.2418 73.2048Z" fill="#1D1D1D" fill-opacity="0.05"/>
<path d="M19.2418 73.2048C19.2418 73.2048 19.2418 87.2293 19.2418 103.444C19.2418 118.654 19.3918 133.875 19.2418 149.081C19.2184 151.725 19.1386 154.351 19.6872 156.953C20.1092 158.951 21.1783 159.86 23.1523 159.978C32.7599 160.564 42.5503 159.978 52.1766 159.935C54.6758 159.926 57.5876 159.701 58.9709 157.624C59.8102 156.367 59.8336 154.754 59.8242 153.244C59.7445 133.659 59.7774 114.078 59.7774 94.4925C59.7774 83.919 59.7774 73.3502 59.7774 62.7767V62.1765C59.7774 57.1219 66.2199 59.6539 68.8316 60.4979C73.9144 62.1437 78.955 63.9067 83.9533 65.7917C89.158 67.7516 96.604 70.701 101.48 66.4341C103.145 64.9805 104.12 62.7673 104.064 60.5542C103.942 55.5183 99.7268 54.0225 95.8022 52.3205C92.8341 51.0357 89.8379 49.8166 86.8136 48.6678C78.458 45.4887 69.821 42.4691 60.973 41.0249C56.1013 40.2184 51.0841 40.0871 46.1608 40.1152C39.7839 40.1481 33.346 39.3838 26.955 40.2418C20.5125 41.1093 14.0043 43.6319 9.49825 48.4662C4.85155 53.4552 2.5071 60.0478 1.44741 66.6779C0.800339 70.7103 0.659672 74.7709 0.589338 78.8456C0.519005 82.878 0.157959 86.9949 1.44272 90.8867C3.04163 95.7256 6.36138 99.1345 10.5626 101.84C12.4804 103.078 14.5107 104.142 16.6019 105.066C16.7848 105.146 19.3121 106.022 19.3121 106.149L19.2324 73.1955L19.2418 73.2048Z" fill="url(#paint18_linear_6611_61)" fill-opacity="0.2"/>
<path d="M26.9863 40.4746C30.1633 40.0481 33.3561 40.0239 36.5576 40.1035C39.3528 40.173 42.1657 40.3215 44.9639 40.3467L46.1621 40.3496C51.0818 40.3215 56.0829 40.4527 60.9346 41.2559H60.9355C69.7584 42.696 78.3767 45.7084 86.7305 48.8867C88.9962 49.7473 91.2463 50.6472 93.4805 51.585L95.709 52.5352C97.6863 53.3927 99.6849 54.1791 101.215 55.3721C102.727 56.5515 103.771 58.122 103.83 60.5596V60.5605C103.881 62.5697 103.053 64.5818 101.621 65.9854L101.326 66.2578C98.9606 68.3277 95.9608 68.6599 92.873 68.2158C89.782 67.7712 86.6451 66.5547 84.0361 65.5723C79.0343 63.686 73.9904 61.9213 68.9043 60.2744H68.9033C67.6166 59.8586 65.3137 59.0004 63.3379 58.8916C62.3487 58.8371 61.3972 58.9668 60.6885 59.4727C59.9656 59.9888 59.543 60.8605 59.543 62.1768V94.4922C59.543 114.077 59.5101 133.659 59.5898 153.245C59.5993 154.767 59.5692 156.306 58.7764 157.493L58.7754 157.494C58.1267 158.468 57.1131 159.02 55.9326 159.328C54.7498 159.637 53.4222 159.696 52.1758 159.701C42.5313 159.743 32.7649 160.33 23.167 159.744L23.166 159.743C22.2115 159.686 21.5065 159.44 20.9912 158.993C20.4758 158.546 20.1214 157.873 19.917 156.905C19.3748 154.334 19.453 151.737 19.4766 149.083C19.6177 134.777 19.4947 120.457 19.4795 106.149H19.5469V106.148L19.4766 77.0244V73.1074L19.4072 73.0391L19.3984 73.0293L18.9971 72.6279L18.998 73.1963L19.0078 77.0244V103.443C19.0078 104.203 19.0091 104.964 19.0098 105.724C19.0084 105.723 19.0072 105.722 19.0059 105.722C18.7614 105.618 18.4353 105.493 18.1074 105.37C17.779 105.247 17.4451 105.126 17.1826 105.03C16.9131 104.932 16.7321 104.867 16.6953 104.851H16.6943C14.6134 103.931 12.5947 102.872 10.6895 101.643C6.51696 98.9556 3.24187 95.5854 1.66504 90.8135C0.396233 86.97 0.753446 82.9072 0.824219 78.8496C0.894533 74.7761 1.03448 70.7296 1.67871 66.7148C2.70132 60.3168 4.92201 53.9772 9.24512 49.0938L9.66992 48.626C14.1274 43.8439 20.5778 41.3375 26.9863 40.4746Z" stroke="url(#paint19_linear_6611_61)" stroke-opacity="0.1" stroke-width="0.46889"/>
<path d="M137.837 18.8416C135.765 4.87809 123.874 3.19946 119.565 3.19946C115.256 3.19946 110.984 4.70929 107.932 7.72894C102.305 13.2947 100.809 23.1742 104.963 29.8887C106.403 32.2097 108.138 34.3619 110.299 36.0218C110.515 36.1906 113.178 37.6863 113.178 37.8364L113.099 41.5875L118.444 46.6187L114.215 52.0438L118.524 58.1112L113.976 62.8986L114.055 66.0917L123.316 71.5965L126.903 65.9323V37.8364C126.903 37.8364 139.915 32.8099 137.837 18.8416ZM120.193 20.5062C117.286 20.5062 114.927 18.1477 114.927 15.2406C114.927 12.3334 117.286 9.97493 120.193 9.97493C123.1 9.97493 125.459 12.3334 125.459 15.2406C125.459 18.1477 123.105 20.5062 120.193 20.5062Z" fill="#1D1D1D" fill-opacity="0.05"/>
<path d="M137.837 18.8416C135.765 4.87809 123.874 3.19946 119.565 3.19946C115.256 3.19946 110.984 4.70929 107.932 7.72894C102.305 13.2947 100.809 23.1742 104.963 29.8887C106.403 32.2097 108.138 34.3619 110.299 36.0218C110.515 36.1906 113.178 37.6863 113.178 37.8364L113.099 41.5875L118.444 46.6187L114.215 52.0438L118.524 58.1112L113.976 62.8986L114.055 66.0917L123.316 71.5965L126.903 65.9323V37.8364C126.903 37.8364 139.915 32.8099 137.837 18.8416ZM120.193 20.5062C117.286 20.5062 114.927 18.1477 114.927 15.2406C114.927 12.3334 117.286 9.97493 120.193 9.97493C123.1 9.97493 125.459 12.3334 125.459 15.2406C125.459 18.1477 123.105 20.5062 120.193 20.5062Z" fill="url(#paint20_linear_6611_61)" fill-opacity="0.2"/>
<path d="M119.564 3.43384C121.696 3.43384 125.701 3.85015 129.423 5.98755C133.018 8.05188 136.364 11.7294 137.502 18.2375L137.605 18.8762C138.631 25.7716 135.936 30.4493 132.983 33.4114C131.505 34.8946 129.961 35.948 128.786 36.6301C128.199 36.971 127.705 37.2189 127.358 37.3811C127.185 37.4621 127.049 37.5216 126.957 37.5608C126.911 37.5802 126.876 37.5943 126.853 37.6038C126.841 37.6084 126.832 37.6123 126.826 37.6145C126.824 37.6155 126.822 37.6169 126.82 37.6174H126.818L126.668 37.676V65.8655L123.239 71.2776L114.286 65.9563L114.212 62.9885L118.693 58.2727L118.826 58.1331L118.715 57.9758L114.506 52.0491L118.629 46.7629L118.761 46.594L118.604 46.4475L113.335 41.4875L113.413 37.8411V37.8362C113.413 37.7568 113.374 37.7008 113.363 37.6848C113.347 37.6608 113.327 37.6407 113.312 37.6262C113.282 37.5966 113.244 37.5653 113.205 37.5354C113.125 37.4745 113.014 37.3993 112.887 37.3167C112.63 37.1502 112.287 36.9416 111.94 36.7346C111.594 36.5277 111.238 36.3189 110.96 36.1536C110.82 36.0705 110.699 35.999 110.607 35.9426L110.444 35.8372L110.442 35.8362L110.047 35.5227C108.096 33.9313 106.503 31.9261 105.163 29.7649C101.071 23.15 102.542 13.3903 108.097 7.89575C111.099 4.92585 115.308 3.4339 119.564 3.43384ZM120.193 9.74048C117.157 9.74048 114.693 12.2039 114.693 15.2405C114.693 18.2771 117.157 20.7405 120.193 20.7405C123.235 20.7403 125.693 18.2768 125.693 15.2405C125.693 12.204 123.23 9.74066 120.193 9.74048Z" stroke="url(#paint21_linear_6611_61)" stroke-opacity="0.1" stroke-width="0.46889"/>
<path d="M150.995 83.0938H79.3536C75.5987 83.0938 72.5547 86.1377 72.5547 89.8927V153.441C72.5547 157.196 75.5987 160.24 79.3536 160.24H150.995C154.75 160.24 157.794 157.196 157.794 153.441V89.8927C157.794 86.1377 154.75 83.0938 150.995 83.0938Z" fill="#1D1D1D" fill-opacity="0.05"/>
<path d="M150.995 83.0938H79.3536C75.5987 83.0938 72.5547 86.1377 72.5547 89.8927V153.441C72.5547 157.196 75.5987 160.24 79.3536 160.24H150.995C154.75 160.24 157.794 157.196 157.794 153.441V89.8927C157.794 86.1377 154.75 83.0938 150.995 83.0938Z" fill="url(#paint22_linear_6611_61)" fill-opacity="0.2"/>
<path d="M79.3535 83.3281H150.995C154.621 83.3281 157.56 86.2672 157.56 89.8926V153.441C157.56 157.067 154.621 160.006 150.995 160.006H79.3535C75.7281 160.006 72.7891 157.067 72.7891 153.441V89.8926C72.7891 86.2672 75.7281 83.3282 79.3535 83.3281Z" stroke="url(#paint23_linear_6611_61)" stroke-opacity="0.1" stroke-width="0.46889"/>
<path d="M39.3526 34.0854C48.5198 34.0854 55.9513 26.6539 55.9513 17.4867C55.9513 8.31944 48.5198 0.887939 39.3526 0.887939C30.1854 0.887939 22.7539 8.31944 22.7539 17.4867C22.7539 26.6539 30.1854 34.0854 39.3526 34.0854Z" fill="url(#paint24_linear_6611_61)"/>
<path d="M39.3525 1.12231C48.3902 1.12231 55.7168 8.44887 55.7168 17.4866C55.7168 26.5243 48.3903 33.8508 39.3525 33.8508C30.3148 33.8508 22.9883 26.5243 22.9883 17.4866C22.9883 8.4489 30.3149 1.12236 39.3525 1.12231Z" stroke="url(#paint25_linear_6611_61)" stroke-opacity="0.1" stroke-width="0.46889"/>
<path d="M19.2418 73.2048C19.2418 73.2048 19.2418 87.2293 19.2418 103.444C19.2418 118.654 19.3918 133.875 19.2418 149.081C19.2184 151.725 19.1386 154.351 19.6872 156.953C20.1092 158.951 21.1783 159.86 23.1523 159.978C32.7599 160.564 42.5503 159.978 52.1766 159.935C54.6758 159.926 57.5876 159.701 58.9709 157.624C59.8102 156.367 59.8336 154.754 59.8242 153.244C59.7445 133.659 59.7774 114.078 59.7774 94.4925C59.7774 83.919 59.7774 73.3502 59.7774 62.7767V62.1765C59.7774 57.1219 66.2199 59.6539 68.8316 60.4979C73.9144 62.1437 78.955 63.9067 83.9533 65.7917C89.158 67.7516 96.604 70.701 101.48 66.4341C103.145 64.9805 104.12 62.7673 104.064 60.5542C103.942 55.5183 99.7268 54.0225 95.8022 52.3205C92.8341 51.0357 89.8379 49.8166 86.8136 48.6678C78.458 45.4887 69.821 42.4691 60.973 41.0249C56.1013 40.2184 51.0841 40.0871 46.1608 40.1152C39.7839 40.1481 33.346 39.3838 26.955 40.2418C20.5125 41.1093 14.0043 43.6319 9.49825 48.4662C4.85155 53.4552 2.5071 60.0478 1.44741 66.6779C0.800339 70.7103 0.659672 74.7709 0.589338 78.8456C0.519005 82.878 0.157959 86.9949 1.44272 90.8867C3.04163 95.7256 6.36138 99.1345 10.5626 101.84C12.4804 103.078 14.5107 104.142 16.6019 105.066C16.7848 105.146 19.3121 106.022 19.3121 106.149L19.2324 73.1955L19.2418 73.2048Z" fill="url(#paint26_linear_6611_61)"/>
<path d="M26.9863 40.4746C30.1633 40.0481 33.3561 40.0239 36.5576 40.1035C39.3528 40.173 42.1657 40.3215 44.9639 40.3467L46.1621 40.3496C51.0818 40.3215 56.0829 40.4527 60.9346 41.2559H60.9355C69.7584 42.696 78.3767 45.7084 86.7305 48.8867C88.9962 49.7473 91.2463 50.6472 93.4805 51.585L95.709 52.5352C97.6863 53.3927 99.6849 54.1791 101.215 55.3721C102.727 56.5515 103.771 58.122 103.83 60.5596V60.5605C103.881 62.5697 103.053 64.5818 101.621 65.9854L101.326 66.2578C98.9606 68.3277 95.9608 68.6599 92.873 68.2158C89.782 67.7712 86.6451 66.5547 84.0361 65.5723C79.0343 63.686 73.9904 61.9213 68.9043 60.2744H68.9033C67.6166 59.8586 65.3137 59.0004 63.3379 58.8916C62.3487 58.8371 61.3972 58.9668 60.6885 59.4727C59.9656 59.9888 59.543 60.8605 59.543 62.1768V94.4922C59.543 114.077 59.5101 133.659 59.5898 153.245C59.5993 154.767 59.5692 156.306 58.7764 157.493L58.7754 157.494C58.1267 158.468 57.1131 159.02 55.9326 159.328C54.7498 159.637 53.4222 159.696 52.1758 159.701C42.5313 159.743 32.7649 160.33 23.167 159.744L23.166 159.743C22.2115 159.686 21.5065 159.44 20.9912 158.993C20.4758 158.546 20.1214 157.873 19.917 156.905C19.3748 154.334 19.453 151.737 19.4766 149.083C19.6177 134.777 19.4947 120.457 19.4795 106.149H19.5469V106.148L19.4766 77.0244V73.1074L19.4072 73.0391L19.3984 73.0293L18.9971 72.6279L18.998 73.1963L19.0078 77.0244V103.443C19.0078 104.203 19.0091 104.964 19.0098 105.724C19.0084 105.723 19.0072 105.722 19.0059 105.722C18.7614 105.618 18.4353 105.493 18.1074 105.37C17.779 105.247 17.4451 105.126 17.1826 105.03C16.9131 104.932 16.7321 104.867 16.6953 104.851H16.6943C14.6134 103.931 12.5947 102.872 10.6895 101.643C6.51696 98.9556 3.24187 95.5854 1.66504 90.8135C0.396233 86.97 0.753446 82.9072 0.824219 78.8496C0.894533 74.7761 1.03448 70.7296 1.67871 66.7148C2.70132 60.3168 4.92201 53.9772 9.24512 49.0938L9.66992 48.626C14.1274 43.8439 20.5778 41.3375 26.9863 40.4746Z" stroke="url(#paint27_linear_6611_61)" stroke-opacity="0.1" stroke-width="0.46889"/>
<path d="M137.837 18.8416C135.765 4.87809 123.874 3.19946 119.565 3.19946C115.256 3.19946 110.984 4.70929 107.932 7.72894C102.305 13.2947 100.809 23.1742 104.963 29.8887C106.403 32.2097 108.138 34.3619 110.299 36.0218C110.515 36.1906 113.178 37.6863 113.178 37.8364L113.099 41.5875L118.444 46.6187L114.215 52.0438L118.524 58.1112L113.976 62.8986L114.055 66.0917L123.316 71.5965L126.903 65.9323V37.8364C126.903 37.8364 139.915 32.8099 137.837 18.8416ZM120.193 20.5062C117.286 20.5062 114.927 18.1477 114.927 15.2406C114.927 12.3334 117.286 9.97493 120.193 9.97493C123.1 9.97493 125.459 12.3334 125.459 15.2406C125.459 18.1477 123.105 20.5062 120.193 20.5062Z" fill="url(#paint28_linear_6611_61)"/>
<path d="M119.564 3.43384C121.696 3.43384 125.701 3.85015 129.423 5.98755C133.018 8.05188 136.364 11.7294 137.502 18.2375L137.605 18.8762C138.631 25.7716 135.936 30.4493 132.983 33.4114C131.505 34.8946 129.961 35.948 128.786 36.6301C128.199 36.971 127.705 37.2189 127.358 37.3811C127.185 37.4621 127.049 37.5216 126.957 37.5608C126.911 37.5802 126.876 37.5943 126.853 37.6038C126.841 37.6084 126.832 37.6123 126.826 37.6145C126.824 37.6155 126.822 37.6169 126.82 37.6174H126.818L126.668 37.676V65.8655L123.239 71.2776L114.286 65.9563L114.212 62.9885L118.693 58.2727L118.826 58.1331L118.715 57.9758L114.506 52.0491L118.629 46.7629L118.761 46.594L118.604 46.4475L113.335 41.4875L113.413 37.8411V37.8362C113.413 37.7568 113.374 37.7008 113.363 37.6848C113.347 37.6608 113.327 37.6407 113.312 37.6262C113.282 37.5966 113.244 37.5653 113.205 37.5354C113.125 37.4745 113.014 37.3993 112.887 37.3167C112.63 37.1502 112.287 36.9416 111.94 36.7346C111.594 36.5277 111.238 36.3189 110.96 36.1536C110.82 36.0705 110.699 35.999 110.607 35.9426L110.444 35.8372L110.442 35.8362L110.047 35.5227C108.096 33.9313 106.503 31.9261 105.163 29.7649C101.071 23.15 102.542 13.3903 108.097 7.89575C111.099 4.92585 115.308 3.4339 119.564 3.43384ZM120.193 9.74048C117.157 9.74048 114.693 12.2039 114.693 15.2405C114.693 18.2771 117.157 20.7405 120.193 20.7405C123.235 20.7403 125.693 18.2768 125.693 15.2405C125.693 12.204 123.23 9.74066 120.193 9.74048Z" stroke="url(#paint29_linear_6611_61)" stroke-opacity="0.1" stroke-width="0.46889"/>
<path d="M150.995 83.0938H79.3536C75.5987 83.0938 72.5547 86.1377 72.5547 89.8927V153.441C72.5547 157.196 75.5987 160.24 79.3536 160.24H150.995C154.75 160.24 157.794 157.196 157.794 153.441V89.8927C157.794 86.1377 154.75 83.0938 150.995 83.0938Z" fill="url(#paint30_linear_6611_61)"/>
<path d="M79.3535 83.3281H150.995C154.621 83.3281 157.56 86.2672 157.56 89.8926V153.441C157.56 157.067 154.621 160.006 150.995 160.006H79.3535C75.7281 160.006 72.7891 157.067 72.7891 153.441V89.8926C72.7891 86.2672 75.7281 83.3282 79.3535 83.3281Z" stroke="url(#paint31_linear_6611_61)" stroke-opacity="0.1" stroke-width="0.46889"/>
<path d="M140.342 92.073H87.5968C84.769 92.073 82.4766 94.3654 82.4766 97.1933V146.145C82.4766 148.973 84.769 151.266 87.5968 151.266H140.342C143.17 151.266 145.463 148.973 145.463 146.145V97.1933C145.463 94.3654 143.17 92.073 140.342 92.073Z" fill="white" fill-opacity="0.16"/>
<path d="M145.842 101.413H145.082C142.972 101.413 141.261 103.124 141.261 105.235V113.272C141.261 115.382 142.972 117.093 145.082 117.093H145.842C147.952 117.093 149.663 115.382 149.663 113.272V105.235C149.663 103.124 147.952 101.413 145.842 101.413Z" fill="white" fill-opacity="0.16"/>
<path d="M145.842 126.672H145.082C142.972 126.672 141.261 128.383 141.261 130.494V138.531C141.261 140.641 142.972 142.352 145.082 142.352H145.842C147.952 142.352 149.663 140.641 149.663 138.531V130.494C149.663 128.383 147.952 126.672 145.842 126.672Z" fill="white" fill-opacity="0.16"/>
<path d="M114.454 133.373C121.065 133.373 126.425 128.013 126.425 121.402C126.425 114.791 121.065 109.431 114.454 109.431C107.843 109.431 102.483 114.791 102.483 121.402C102.483 128.013 107.843 133.373 114.454 133.373Z" fill="white" fill-opacity="0.16"/>
</g>
<defs>
<linearGradient id="paint0_linear_6611_61" x1="24.1371" y1="7.52743" x2="60.3251" y2="12.5535" gradientUnits="userSpaceOnUse">
<stop stop-color="#66FECB"/>
<stop offset="1" stop-color="#8940FF"/>
</linearGradient>
<linearGradient id="paint1_linear_6611_61" x1="23.7913" y1="2.39691" x2="55.9513" y2="2.39691" gradientUnits="userSpaceOnUse">
<stop stop-color="#C8A6FF"/>
<stop offset="1" stop-color="#69CFB5"/>
</linearGradient>
<linearGradient id="paint2_linear_6611_61" x1="4.80497" y1="63.9137" x2="118.271" y2="77.4705" gradientUnits="userSpaceOnUse">
<stop stop-color="#66FECB"/>
<stop offset="1" stop-color="#8940FF"/>
</linearGradient>
<linearGradient id="paint3_linear_6611_61" x1="3.72604" y1="45.3059" x2="104.066" y2="45.3059" gradientUnits="userSpaceOnUse">
<stop stop-color="#C8A6FF"/>
<stop offset="1" stop-color="#69CFB5"/>
</linearGradient>
<linearGradient id="paint4_linear_6611_61" x1="104.069" y1="16.8789" x2="143.278" y2="19.7031" gradientUnits="userSpaceOnUse">
<stop stop-color="#66FECB"/>
<stop offset="1" stop-color="#8940FF"/>
</linearGradient>
<linearGradient id="paint5_linear_6611_61" x1="103.699" y1="6.30842" x2="138.062" y2="6.30842" gradientUnits="userSpaceOnUse">
<stop stop-color="#C8A6FF"/>
<stop offset="1" stop-color="#69CFB5"/>
</linearGradient>
<linearGradient id="paint6_linear_6611_61" x1="76.1063" y1="98.5231" x2="168.638" y2="112.723" gradientUnits="userSpaceOnUse">
<stop stop-color="#66FECB"/>
<stop offset="1" stop-color="#8940FF"/>
</linearGradient>
<linearGradient id="paint7_linear_6611_61" x1="75.2184" y1="86.6004" x2="157.794" y2="86.6004" gradientUnits="userSpaceOnUse">
<stop stop-color="#C8A6FF"/>
<stop offset="1" stop-color="#69CFB5"/>
</linearGradient>
<linearGradient id="paint8_linear_6611_61" x1="35.4656" y1="-60.2439" x2="78.5223" y2="10.1154" gradientUnits="userSpaceOnUse">
<stop offset="0.580613" stop-color="#3DBDF1"/>
<stop offset="1" stop-color="#1A6F92" stop-opacity="0.35"/>
</linearGradient>
<linearGradient id="paint9_linear_6611_61" x1="23.7913" y1="2.39691" x2="55.9513" y2="2.39691" gradientUnits="userSpaceOnUse">
<stop stop-color="#C8A6FF"/>
<stop offset="1" stop-color="#69CFB5"/>
</linearGradient>
<linearGradient id="paint10_linear_6611_61" x1="40.1501" y1="-181.886" x2="205.824" y2="51.0086" gradientUnits="userSpaceOnUse">
<stop offset="0.580613" stop-color="#3DBDF1"/>
<stop offset="1" stop-color="#1A6F92" stop-opacity="0.35"/>
</linearGradient>
<linearGradient id="paint11_linear_6611_61" x1="3.72604" y1="45.3059" x2="104.066" y2="45.3059" gradientUnits="userSpaceOnUse">
<stop stop-color="#C8A6FF"/>
<stop offset="1" stop-color="#69CFB5"/>
</linearGradient>
<linearGradient id="paint12_linear_6611_61" x1="116.173" y1="-122.751" x2="214.448" y2="-39.4669" gradientUnits="userSpaceOnUse">
<stop offset="0.580613" stop-color="#3DBDF1"/>
<stop offset="1" stop-color="#1A6F92" stop-opacity="0.35"/>
</linearGradient>
<linearGradient id="paint13_linear_6611_61" x1="103.699" y1="6.30842" x2="138.062" y2="6.30842" gradientUnits="userSpaceOnUse">
<stop stop-color="#C8A6FF"/>
<stop offset="1" stop-color="#69CFB5"/>
</linearGradient>
<linearGradient id="paint14_linear_6611_61" x1="105.194" y1="-58.9687" x2="200.446" y2="113.012" gradientUnits="userSpaceOnUse">
<stop offset="0.580613" stop-color="#3DBDF1"/>
<stop offset="1" stop-color="#1A6F92" stop-opacity="0.35"/>
</linearGradient>
<linearGradient id="paint15_linear_6611_61" x1="75.2184" y1="86.6004" x2="157.794" y2="86.6004" gradientUnits="userSpaceOnUse">
<stop stop-color="#C8A6FF"/>
<stop offset="1" stop-color="#69CFB5"/>
</linearGradient>
<linearGradient id="paint16_linear_6611_61" x1="24.1371" y1="7.52743" x2="60.3251" y2="12.5535" gradientUnits="userSpaceOnUse">
<stop stop-color="#66FECB"/>
<stop offset="1" stop-color="#8940FF"/>
</linearGradient>
<linearGradient id="paint17_linear_6611_61" x1="23.7913" y1="2.39691" x2="55.9513" y2="2.39691" gradientUnits="userSpaceOnUse">
<stop stop-color="#C8A6FF"/>
<stop offset="1" stop-color="#69CFB5"/>
</linearGradient>
<linearGradient id="paint18_linear_6611_61" x1="4.80497" y1="63.9137" x2="118.271" y2="77.4705" gradientUnits="userSpaceOnUse">
<stop stop-color="#66FECB"/>
<stop offset="1" stop-color="#8940FF"/>
</linearGradient>
<linearGradient id="paint19_linear_6611_61" x1="3.72604" y1="45.3059" x2="104.066" y2="45.3059" gradientUnits="userSpaceOnUse">
<stop stop-color="#C8A6FF"/>
<stop offset="1" stop-color="#69CFB5"/>
</linearGradient>
<linearGradient id="paint20_linear_6611_61" x1="104.069" y1="16.8789" x2="143.278" y2="19.7031" gradientUnits="userSpaceOnUse">
<stop stop-color="#66FECB"/>
<stop offset="1" stop-color="#8940FF"/>
</linearGradient>
<linearGradient id="paint21_linear_6611_61" x1="103.699" y1="6.30842" x2="138.062" y2="6.30842" gradientUnits="userSpaceOnUse">
<stop stop-color="#C8A6FF"/>
<stop offset="1" stop-color="#69CFB5"/>
</linearGradient>
<linearGradient id="paint22_linear_6611_61" x1="76.1063" y1="98.5231" x2="168.638" y2="112.723" gradientUnits="userSpaceOnUse">
<stop stop-color="#66FECB"/>
<stop offset="1" stop-color="#8940FF"/>
</linearGradient>
<linearGradient id="paint23_linear_6611_61" x1="75.2184" y1="86.6004" x2="157.794" y2="86.6004" gradientUnits="userSpaceOnUse">
<stop stop-color="#C8A6FF"/>
<stop offset="1" stop-color="#69CFB5"/>
</linearGradient>
<linearGradient id="paint24_linear_6611_61" x1="35.4656" y1="-60.2439" x2="78.5223" y2="10.1154" gradientUnits="userSpaceOnUse">
<stop offset="0.580613" stop-color="#3DBDF1"/>
<stop offset="1" stop-color="#1A6F92" stop-opacity="0.35"/>
</linearGradient>
<linearGradient id="paint25_linear_6611_61" x1="23.7913" y1="2.39691" x2="55.9513" y2="2.39691" gradientUnits="userSpaceOnUse">
<stop stop-color="#C8A6FF"/>
<stop offset="1" stop-color="#69CFB5"/>
</linearGradient>
<linearGradient id="paint26_linear_6611_61" x1="40.1501" y1="-181.886" x2="205.824" y2="51.0086" gradientUnits="userSpaceOnUse">
<stop offset="0.580613" stop-color="#3DBDF1"/>
<stop offset="1" stop-color="#1A6F92" stop-opacity="0.35"/>
</linearGradient>
<linearGradient id="paint27_linear_6611_61" x1="3.72604" y1="45.3059" x2="104.066" y2="45.3059" gradientUnits="userSpaceOnUse">
<stop stop-color="#C8A6FF"/>
<stop offset="1" stop-color="#69CFB5"/>
</linearGradient>
<linearGradient id="paint28_linear_6611_61" x1="116.173" y1="-122.751" x2="214.448" y2="-39.4669" gradientUnits="userSpaceOnUse">
<stop offset="0.580613" stop-color="#3DBDF1"/>
<stop offset="1" stop-color="#1A6F92" stop-opacity="0.35"/>
</linearGradient>
<linearGradient id="paint29_linear_6611_61" x1="103.699" y1="6.30842" x2="138.062" y2="6.30842" gradientUnits="userSpaceOnUse">
<stop stop-color="#C8A6FF"/>
<stop offset="1" stop-color="#69CFB5"/>
</linearGradient>
<linearGradient id="paint30_linear_6611_61" x1="105.194" y1="-58.9687" x2="200.446" y2="113.012" gradientUnits="userSpaceOnUse">
<stop offset="0.580613" stop-color="#3DBDF1"/>
<stop offset="1" stop-color="#1A6F92" stop-opacity="0.35"/>
</linearGradient>
<linearGradient id="paint31_linear_6611_61" x1="75.2184" y1="86.6004" x2="157.794" y2="86.6004" gradientUnits="userSpaceOnUse">
<stop stop-color="#C8A6FF"/>
<stop offset="1" stop-color="#69CFB5"/>
</linearGradient>
<clipPath id="clip0_6611_61">
<rect width="157.294" height="159.352" fill="white" transform="translate(0.5 0.887939)"/>
</clipPath>
<clipPath id="clip1_6611_61">
<rect width="157.294" height="159.352" fill="white" transform="translate(0.5 0.887939)"/>
</clipPath>
</defs>
</svg>
