<svg width="140" height="166" viewBox="0 0 140 166" fill="none" xmlns="http://www.w3.org/2000/svg">
<g clip-path="url(#clip0_6502_168)">
<path d="M116.936 3.62172L126.151 36.6234L139.97 32.6618L130.541 0.302246L116.936 3.62172Z" fill="#1D1D1D" fill-opacity="0.05"/>
<path d="M116.936 3.62172L126.151 36.6234L139.97 32.6618L130.541 0.302246L116.936 3.62172Z" fill="url(#paint0_linear_6502_168)" fill-opacity="0.2"/>
<path d="M69.5768 18.4648L82.4351 8.87573L115.756 9.84094L121.434 32.9849C121.434 32.9849 104.396 42.3055 100.648 42.2005C96.9006 42.0956 72.8963 42.9517 70.861 41.1304C68.8257 39.3091 68.3976 35.4525 70.9701 35.0244C73.5426 34.5964 90.5764 33.6312 91.5416 31.705C92.5068 29.7787 92.3977 25.599 92.3977 25.599L69.5768 18.4732V18.4648Z" fill="#1D1D1D" fill-opacity="0.05"/>
<path d="M69.5768 18.4648L82.4351 8.87573L115.756 9.84094L121.434 32.9849C121.434 32.9849 104.396 42.3055 100.648 42.2005C96.9006 42.0956 72.8963 42.9517 70.861 41.1304C68.8257 39.3091 68.3976 35.4525 70.9701 35.0244C73.5426 34.5964 90.5764 33.6312 91.5416 31.705C92.5068 29.7787 92.3977 25.599 92.3977 25.599L69.5768 18.4732V18.4648Z" fill="url(#paint1_linear_6502_168)" fill-opacity="0.2"/>
<path d="M88.4319 28.1587L51.5735 18.4604L38.0732 68.8736H78.251L85.0033 46.1577C85.0033 46.1577 66.4671 46.1619 65.183 42.3011C63.8988 38.4402 65.2921 35.0116 65.9341 34.0464C66.5762 33.0812 88.436 28.1545 88.436 28.1545L88.4319 28.1587Z" fill="#1D1D1D" fill-opacity="0.05"/>
<path d="M88.4319 28.1587L51.5735 18.4604L38.0732 68.8736H78.251L85.0033 46.1577C85.0033 46.1577 66.4671 46.1619 65.183 42.3011C63.8988 38.4402 65.2921 35.0116 65.9341 34.0464C66.5762 33.0812 88.436 28.1545 88.436 28.1545L88.4319 28.1587Z" fill="url(#paint2_linear_6502_168)" fill-opacity="0.2"/>
<path d="M35.72 61.9116L34.2218 68.8779H22.2197C22.2197 68.8779 19.6472 70.5943 22.2197 71.9833C24.7921 73.3724 93.1497 72.5205 93.1497 72.5205C93.1497 72.5205 94.8661 69.6291 93.1497 69.52C91.4334 69.4109 81.8988 68.8779 81.8988 68.8779L83.9341 62.4488H107.183L115.005 78.9496H1.53906L9.25232 61.9116H35.7158H35.72Z" fill="#1D1D1D" fill-opacity="0.05"/>
<path d="M35.72 61.9116L34.2218 68.8779H22.2197C22.2197 68.8779 19.6472 70.5943 22.2197 71.9833C24.7921 73.3724 93.1497 72.5205 93.1497 72.5205C93.1497 72.5205 94.8661 69.6291 93.1497 69.52C91.4334 69.4109 81.8988 68.8779 81.8988 68.8779L83.9341 62.4488H107.183L115.005 78.9496H1.53906L9.25232 61.9116H35.7158H35.72Z" fill="url(#paint3_linear_6502_168)" fill-opacity="0.2"/>
<path d="M116.079 82.5923H0.145508V96.8438H116.079V82.5923Z" fill="#1D1D1D" fill-opacity="0.05"/>
<path d="M116.079 82.5923H0.145508V96.8438H116.079V82.5923Z" fill="url(#paint4_linear_6502_168)" fill-opacity="0.2"/>
<path d="M110.506 100.377H6.03711V165.416H110.506V100.377Z" fill="#1D1D1D" fill-opacity="0.05"/>
<path d="M110.506 100.377H6.03711V165.416H110.506V100.377Z" fill="url(#paint5_linear_6502_168)" fill-opacity="0.2"/>
<path d="M116.936 3.62172L126.151 36.6234L139.97 32.6618L130.541 0.302246L116.936 3.62172Z" fill="url(#paint6_linear_6502_168)"/>
<path d="M139.35 32.3188L126.497 36.0034L117.556 3.98486L130.194 0.900879L139.35 32.3188Z" stroke="url(#paint7_linear_6502_168)" stroke-opacity="0.1"/>
<path d="M69.5768 18.4648L82.4351 8.87573L115.756 9.84094L121.434 32.9849C121.434 32.9849 104.396 42.3055 100.648 42.2005C96.9006 42.0956 72.8963 42.9517 70.861 41.1304C68.8257 39.3091 68.3976 35.4525 70.9701 35.0244C73.5426 34.5964 90.5764 33.6312 91.5416 31.705C92.5068 29.7787 92.3977 25.599 92.3977 25.599L69.5768 18.4732V18.4648Z" fill="url(#paint8_linear_6502_168)"/>
<path d="M115.36 10.3289L120.855 32.7292C120.747 32.7881 120.613 32.861 120.457 32.9451C119.985 33.1991 119.306 33.5616 118.479 33.9968C116.826 34.8675 114.585 36.0277 112.227 37.1833C109.867 38.3398 107.397 39.489 105.289 40.3416C104.235 40.7679 103.278 41.1167 102.475 41.3552C101.658 41.5977 101.046 41.7117 100.662 41.7009C98.7885 41.6485 91.7991 41.8359 85.1143 41.8093C81.7551 41.796 78.4595 41.7289 75.8809 41.5525C74.5903 41.4642 73.4912 41.3495 72.6582 41.2029C72.2413 41.1295 71.9025 41.0494 71.6445 40.9656C71.3738 40.8776 71.2419 40.8002 71.1943 40.7576C70.2822 39.9413 69.7231 38.6524 69.6875 37.5388C69.6698 36.9864 69.7818 36.5156 70.002 36.1736C70.2134 35.8451 70.5443 35.6019 71.0518 35.5173C71.6713 35.4143 73.1915 35.2756 75.1797 35.0935C77.1529 34.9128 79.5586 34.6921 81.915 34.4236C84.2689 34.1554 86.5878 33.8384 88.3838 33.4656C89.2797 33.2796 90.0635 33.0762 90.6621 32.8513C90.961 32.739 91.2292 32.6154 91.4473 32.4773C91.6568 32.3446 91.8685 32.1682 91.9883 31.9294C92.5199 30.8685 92.7368 29.2503 92.8301 27.9656C92.8777 27.3101 92.8945 26.717 92.8994 26.2878C92.9019 26.0733 92.9015 25.8992 92.9004 25.7781C92.8998 25.7176 92.899 25.6699 92.8984 25.6375C92.8981 25.6215 92.8977 25.609 92.8975 25.6003V25.5857L92.8877 25.2283L92.5469 25.1218L70.6533 18.2849L82.5938 9.38062L115.36 10.3289Z" stroke="url(#paint9_linear_6502_168)" stroke-opacity="0.1"/>
<path d="M88.4319 28.1587L51.5735 18.4604L38.0732 68.8736H78.251L85.0033 46.1577C85.0033 46.1577 66.4671 46.1619 65.183 42.3011C63.8988 38.4402 65.2921 35.0116 65.9341 34.0464C66.5762 33.0812 88.436 28.1545 88.436 28.1545L88.4319 28.1587Z" fill="url(#paint10_linear_6502_168)"/>
<path d="M86.3311 28.1226C85.9061 28.2201 85.4243 28.3306 84.8975 28.4526C82.8371 28.9298 80.0826 29.5757 77.3076 30.2524C74.5338 30.9289 71.7347 31.637 69.5869 32.2368C68.5143 32.5364 67.5961 32.8115 66.9229 33.0435C66.5874 33.159 66.3017 33.2678 66.085 33.3667C65.9773 33.4158 65.8759 33.4673 65.79 33.521C65.7188 33.5656 65.5998 33.6455 65.5176 33.769C64.8112 34.831 63.3655 38.4191 64.709 42.4585C64.9257 43.11 65.4787 43.6124 66.1504 44.0063C66.8318 44.406 67.7066 44.7363 68.6855 45.0132C70.646 45.5676 73.1175 45.9326 75.5244 46.1743C77.9364 46.4166 80.306 46.538 82.0703 46.5981C82.9527 46.6282 83.6852 46.6424 84.1973 46.6499C84.2451 46.6506 84.291 46.6503 84.335 46.6509L77.8779 68.3735H38.7256L51.9277 19.0698L86.3311 28.1226Z" stroke="url(#paint11_linear_6502_168)" stroke-opacity="0.1"/>
<path d="M35.72 61.9116L34.2218 68.8779H22.2197C22.2197 68.8779 19.6472 70.5943 22.2197 71.9833C24.7921 73.3724 93.1497 72.5205 93.1497 72.5205C93.1497 72.5205 94.8661 69.6291 93.1497 69.52C91.4334 69.4109 81.8988 68.8779 81.8988 68.8779L83.9341 62.4488H107.183L115.005 78.9496H1.53906L9.25232 61.9116H35.7158H35.72Z" fill="url(#paint12_linear_6502_168)"/>
<path d="M35.1016 62.4116L33.8184 68.3774H22.0684L21.9424 68.4624H21.9414L21.9404 68.4634C21.9397 68.4639 21.9386 68.4646 21.9375 68.4653C21.9354 68.4668 21.9329 68.469 21.9297 68.4712C21.923 68.4758 21.9135 68.4818 21.9023 68.4897C21.88 68.5056 21.8489 68.5277 21.8115 68.5562C21.7369 68.6129 21.6347 68.6945 21.5215 68.7974C21.3001 68.9985 21.0124 69.3015 20.8135 69.6743C20.6121 70.0518 20.4821 70.5438 20.6611 71.0728C20.8375 71.5935 21.2786 72.0433 21.9824 72.4233C22.1373 72.5069 22.3503 72.5589 22.5557 72.5981C22.7789 72.6408 23.0584 72.6796 23.3857 72.7153C24.0416 72.7869 24.9192 72.8498 25.9805 72.9048C28.1045 73.0149 30.9923 73.0951 34.3789 73.1528C41.1541 73.2684 49.9441 73.2926 58.6504 73.2729C67.3574 73.2533 75.9842 73.1905 82.4336 73.1323C85.6581 73.1032 88.3385 73.0748 90.2129 73.0542C91.1501 73.0439 91.8863 73.0357 92.3877 73.0298C92.6382 73.0268 92.8306 73.0245 92.96 73.0229C93.0245 73.0222 93.0736 73.0214 93.1064 73.021C93.1228 73.0208 93.1353 73.0211 93.1436 73.021C93.1477 73.0209 93.1512 73.02 93.1533 73.02H93.1553C93.1557 73.0158 93.155 72.9719 93.1494 72.52L93.1562 73.02L93.4365 73.0171L93.5801 72.7749L93.582 72.772C93.5832 72.7701 93.585 72.7674 93.5869 72.7642C93.5907 72.7576 93.5959 72.7484 93.6025 72.7368C93.616 72.7133 93.6349 72.6795 93.6582 72.6372C93.7048 72.5525 93.7689 72.432 93.8398 72.2876C93.9802 72.002 94.1548 71.6079 94.2734 71.2007C94.3864 70.8128 94.4753 70.3271 94.3555 69.8999C94.2912 69.6713 94.1634 69.4491 93.9453 69.2827C93.7305 69.119 93.4676 69.0392 93.1816 69.021C92.3212 68.9663 89.5062 68.8055 86.9092 68.6587C85.61 68.5852 84.3641 68.5151 83.4434 68.4634C83.1031 68.4443 82.8072 68.4279 82.5693 68.4146L84.3008 62.9487H106.867L114.215 78.4497H2.31348L9.5752 62.4116H35.1016Z" stroke="url(#paint13_linear_6502_168)" stroke-opacity="0.1"/>
<path d="M116.079 82.5923H0.145508V96.8438H116.079V82.5923Z" fill="url(#paint14_linear_6502_168)"/>
<path d="M115.579 83.0923V96.3442H0.645508V83.0923H115.579Z" stroke="url(#paint15_linear_6502_168)" stroke-opacity="0.1"/>
<path d="M110.506 100.377H6.03711V165.416H110.506V100.377Z" fill="url(#paint16_linear_6502_168)"/>
<path d="M110.006 100.877V164.916H6.53711V100.877H110.006Z" stroke="url(#paint17_linear_6502_168)" stroke-opacity="0.1"/>
<path d="M19.2266 119.488H26.6545L29.5123 139.98H29.5878L32.4457 119.488H39.9869L34.1201 146.686H24.98L19.2266 119.488Z" fill="white" fill-opacity="0.16"/>
<path d="M40.3268 133.09C40.3268 127.961 41.0486 124.323 42.4964 122.178C43.9442 120.034 46.4579 118.96 50.0376 118.96C53.6172 118.96 56.131 120.034 57.5788 122.178C59.0266 124.323 59.7484 127.961 59.7484 133.09C59.7484 138.218 59.0308 141.869 57.5956 143.963C56.1603 146.057 53.6382 147.106 50.0334 147.106C46.4285 147.106 43.9064 146.057 42.4712 143.963C41.036 141.869 40.3184 138.243 40.3184 133.09H40.3268ZM48.061 125.565C47.7798 126.769 47.6413 129.279 47.6413 133.09C47.6413 136.9 47.7798 139.405 48.061 140.614C48.3422 141.823 49.001 142.423 50.0418 142.423C51.0825 142.423 51.7414 141.818 52.0225 140.614C52.3037 139.41 52.4422 136.9 52.4422 133.09C52.4422 129.279 52.3037 126.774 52.0225 125.565C51.7414 124.361 51.0825 123.756 50.0418 123.756C49.001 123.756 48.3422 124.361 48.061 125.565Z" fill="white" fill-opacity="0.16"/>
<path d="M65.8882 125.511H60.6299V119.493H78.3058V125.511H72.9719V146.691H65.8882V125.511Z" fill="white" fill-opacity="0.16"/>
<path d="M79.9053 119.488H96.0158V125.28H86.9891V129.925H95.4451V135.486H86.9891V140.895H96.36V146.686H79.9053V119.488Z" fill="white" fill-opacity="0.16"/>
<path d="M19.2266 119.488H26.6545L29.5123 139.98H29.5878L32.4457 119.488H39.9869L34.1201 146.686H24.98L19.2266 119.488Z" fill="white" fill-opacity="0.16"/>
<path d="M40.3268 133.09C40.3268 127.961 41.0486 124.323 42.4964 122.178C43.9442 120.034 46.4579 118.96 50.0376 118.96C53.6172 118.96 56.131 120.034 57.5788 122.178C59.0266 124.323 59.7484 127.961 59.7484 133.09C59.7484 138.218 59.0308 141.869 57.5956 143.963C56.1603 146.057 53.6382 147.106 50.0334 147.106C46.4285 147.106 43.9064 146.057 42.4712 143.963C41.036 141.869 40.3184 138.243 40.3184 133.09H40.3268ZM48.061 125.565C47.7798 126.769 47.6413 129.279 47.6413 133.09C47.6413 136.9 47.7798 139.405 48.061 140.614C48.3422 141.823 49.001 142.423 50.0418 142.423C51.0825 142.423 51.7414 141.818 52.0225 140.614C52.3037 139.41 52.4422 136.9 52.4422 133.09C52.4422 129.279 52.3037 126.774 52.0225 125.565C51.7414 124.361 51.0825 123.756 50.0418 123.756C49.001 123.756 48.3422 124.361 48.061 125.565Z" fill="white" fill-opacity="0.16"/>
<path d="M65.8882 125.511H60.6299V119.493H78.3058V125.511H72.9719V146.691H65.8882V125.511Z" fill="white" fill-opacity="0.16"/>
<path d="M79.9053 119.488H96.0158V125.28H86.9891V129.925H95.4451V135.486H86.9891V140.895H96.36V146.686H79.9053V119.488Z" fill="white" fill-opacity="0.16"/>
</g>
<defs>
<linearGradient id="paint0_linear_6502_168" x1="117.895" y1="7.56648" x2="143.293" y2="9.80355" gradientUnits="userSpaceOnUse">
<stop stop-color="#66FECB"/>
<stop offset="1" stop-color="#8940FF"/>
</linearGradient>
<linearGradient id="paint1_linear_6502_168" x1="71.3625" y1="15.5629" x2="126.804" y2="27.5956" gradientUnits="userSpaceOnUse">
<stop stop-color="#66FECB"/>
<stop offset="1" stop-color="#8940FF"/>
</linearGradient>
<linearGradient id="paint2_linear_6502_168" x1="40.1717" y1="28.5431" x2="95.0734" y2="36.1607" gradientUnits="userSpaceOnUse">
<stop stop-color="#66FECB"/>
<stop offset="1" stop-color="#8940FF"/>
</linearGradient>
<linearGradient id="paint3_linear_6502_168" x1="6.26682" y1="65.3192" x2="74.2119" y2="128.165" gradientUnits="userSpaceOnUse">
<stop stop-color="#66FECB"/>
<stop offset="1" stop-color="#8940FF"/>
</linearGradient>
<linearGradient id="paint4_linear_6502_168" x1="4.97609" y1="85.4426" x2="61.5599" y2="149.373" gradientUnits="userSpaceOnUse">
<stop stop-color="#66FECB"/>
<stop offset="1" stop-color="#8940FF"/>
</linearGradient>
<linearGradient id="paint5_linear_6502_168" x1="10.39" y1="113.385" x2="120.963" y2="138.053" gradientUnits="userSpaceOnUse">
<stop stop-color="#66FECB"/>
<stop offset="1" stop-color="#8940FF"/>
</linearGradient>
<linearGradient id="paint6_linear_6502_168" x1="125.756" y1="-66.5818" x2="178.626" y2="-11.7897" gradientUnits="userSpaceOnUse">
<stop offset="0.580613" stop-color="#3DBDF1"/>
<stop offset="1" stop-color="#1A6F92" stop-opacity="0.35"/>
</linearGradient>
<linearGradient id="paint7_linear_6502_168" x1="117.655" y1="1.95321" x2="139.97" y2="1.95321" gradientUnits="userSpaceOnUse">
<stop stop-color="#C8A6FF"/>
<stop offset="1" stop-color="#69CFB5"/>
</linearGradient>
<linearGradient id="paint8_linear_6502_168" x1="89.1919" y1="-52.6955" x2="122.265" y2="31.7557" gradientUnits="userSpaceOnUse">
<stop offset="0.580613" stop-color="#3DBDF1"/>
<stop offset="1" stop-color="#1A6F92" stop-opacity="0.35"/>
</linearGradient>
<linearGradient id="paint9_linear_6502_168" x1="70.8183" y1="10.3956" x2="121.434" y2="10.3956" gradientUnits="userSpaceOnUse">
<stop stop-color="#C8A6FF"/>
<stop offset="1" stop-color="#69CFB5"/>
</linearGradient>
<linearGradient id="paint10_linear_6502_168" x1="57.3577" y1="-74.3735" x2="122.773" y2="32.4149" gradientUnits="userSpaceOnUse">
<stop offset="0.580613" stop-color="#3DBDF1"/>
<stop offset="1" stop-color="#1A6F92" stop-opacity="0.35"/>
</linearGradient>
<linearGradient id="paint11_linear_6502_168" x1="39.6471" y1="20.752" x2="88.436" y2="20.752" gradientUnits="userSpaceOnUse">
<stop stop-color="#C8A6FF"/>
<stop offset="1" stop-color="#69CFB5"/>
</linearGradient>
<linearGradient id="paint12_linear_6502_168" x1="44.9866" y1="30.5368" x2="49.5093" y2="79.7549" gradientUnits="userSpaceOnUse">
<stop offset="0.580613" stop-color="#3DBDF1"/>
<stop offset="1" stop-color="#1A6F92" stop-opacity="0.35"/>
</linearGradient>
<linearGradient id="paint13_linear_6502_168" x1="5.08489" y1="62.6861" x2="115.005" y2="62.6861" gradientUnits="userSpaceOnUse">
<stop stop-color="#C8A6FF"/>
<stop offset="1" stop-color="#69CFB5"/>
</linearGradient>
<linearGradient id="paint14_linear_6502_168" x1="44.5379" y1="56.3487" x2="47.6434" y2="97.6313" gradientUnits="userSpaceOnUse">
<stop offset="0.580613" stop-color="#3DBDF1"/>
<stop offset="1" stop-color="#1A6F92" stop-opacity="0.35"/>
</linearGradient>
<linearGradient id="paint15_linear_6502_168" x1="3.76844" y1="83.2401" x2="116.079" y2="83.2401" gradientUnits="userSpaceOnUse">
<stop stop-color="#C8A6FF"/>
<stop offset="1" stop-color="#69CFB5"/>
</linearGradient>
<linearGradient id="paint16_linear_6502_168" x1="46.0395" y1="-19.3879" x2="109.072" y2="146.062" gradientUnits="userSpaceOnUse">
<stop offset="0.580613" stop-color="#3DBDF1"/>
<stop offset="1" stop-color="#1A6F92" stop-opacity="0.35"/>
</linearGradient>
<linearGradient id="paint17_linear_6502_168" x1="9.30176" y1="103.334" x2="110.506" y2="103.334" gradientUnits="userSpaceOnUse">
<stop stop-color="#C8A6FF"/>
<stop offset="1" stop-color="#69CFB5"/>
</linearGradient>
<clipPath id="clip0_6502_168">
<rect width="139.825" height="165.113" fill="white" transform="translate(0.145508 0.302246)"/>
</clipPath>
</defs>
</svg>
